<?xml version="1.0" encoding="UTF-8"?>
<svg version="1.1" xmlns="http://www.w3.org/2000/svg" width="1248" height="822">
<path d="M0 0 C1.3538253 -0.01279495 1.3538253 -0.01279495 2.73500061 -0.02584839 C3.72818802 -0.02494202 4.72137543 -0.02403564 5.74465942 -0.02310181 C6.78881516 -0.02981903 7.83297089 -0.03653625 8.9087677 -0.04345703 C12.3790151 -0.06253315 15.84906979 -0.06636723 19.31936646 -0.06851196 C21.7315682 -0.07493736 24.14376915 -0.08166552 26.55596924 -0.08868408 C31.62523197 -0.10068379 36.69442645 -0.10436255 41.76370239 -0.10317993 C48.23755777 -0.10297754 54.71097022 -0.13018536 61.18472099 -0.16472435 C66.17439755 -0.18705279 71.16396895 -0.19101551 76.15369034 -0.18996048 C78.53854003 -0.19231112 80.92339286 -0.20110412 83.30819321 -0.21662521 C100.92867544 -0.32048598 113.82032664 0.2633117 127.70217896 12.26742554 C129.96921891 14.51692553 131.79304006 16.68750812 133.70217896 19.26742554 C133.70217896 19.92742554 133.70217896 20.58742554 133.70217896 21.26742554 C134.36217896 20.60742554 135.02217896 19.94742554 135.70217896 19.26742554 C136.16237427 18.81238647 136.62256958 18.35734741 137.09671021 17.88851929 C138.23986665 16.73423723 139.36006548 15.55702479 140.46389771 14.36508179 C148.25701672 6.12935155 157.09084866 0.33019706 168.66183472 0.00672913 C170.59287468 -0.0081024 172.52401778 -0.01206828 174.45510864 -0.00723267 C175.51445114 -0.0123436 176.57379364 -0.01745453 177.66523743 -0.02272034 C181.15156771 -0.03657245 184.6376995 -0.03566367 188.12405396 -0.03335571 C190.5506701 -0.03724336 192.97728556 -0.04157818 195.40390015 -0.04634094 C200.48105073 -0.05379247 205.55813175 -0.05351834 210.63528442 -0.04824829 C217.15128756 -0.04243708 223.66700798 -0.05942982 230.18296432 -0.08259296 C235.18941927 -0.09729499 240.19580543 -0.09820713 245.20227814 -0.09508324 C247.60572116 -0.09559763 250.00916791 -0.10085745 252.41259003 -0.11089516 C255.7641924 -0.12318163 259.11523452 -0.11651598 262.46682739 -0.10488892 C263.46427475 -0.11253265 264.46172211 -0.12017639 265.48939514 -0.12805176 C266.40054581 -0.12103745 267.31169647 -0.11402313 268.25045776 -0.10679626 C269.04240414 -0.10696401 269.83435051 -0.10713175 270.65029526 -0.10730457 C273.30892731 0.37823439 274.16662935 1.05137471 275.70217896 3.26742554 C276.07132244 5.58874035 276.07132244 5.58874035 276.0629425 8.37367249 C276.06912849 9.95751236 276.06912849 9.95751236 276.07543945 11.573349 C276.06465363 12.73140549 276.0538678 13.88946198 276.04275513 15.08261108 C276.04319321 16.30224548 276.04363129 17.52187988 276.04408264 18.7784729 C276.04234938 22.12344722 276.02729339 25.46786765 276.00636077 28.8127439 C275.98762036 32.30810401 275.98584562 35.80347131 275.98228455 39.2988739 C275.9729563 45.91808957 275.94833207 52.53715678 275.91823608 59.15630704 C275.88471625 66.69188338 275.86821216 74.22746676 275.85314977 81.76309907 C275.82178311 97.26462724 275.76900758 112.76600725 275.70217896 128.26742554 C276.98382935 128.2569519 278.26547974 128.24647827 279.58596802 128.23568726 C284.34196173 128.19948156 289.09794326 128.17652291 293.85403442 128.15756226 C295.91232349 128.147506 297.97059829 128.13385924 300.02883911 128.11654663 C302.98769658 128.092282 305.94636513 128.08093866 308.90530396 128.07211304 C309.82523132 128.06179047 310.74515869 128.0514679 311.69296265 128.04083252 C312.55355286 128.04068146 313.41414307 128.0405304 314.30081177 128.04037476 C315.0558197 128.03593353 315.81082764 128.03149231 316.5887146 128.0269165 C319.12949671 128.31605365 320.60150282 128.7931264 322.70217896 130.26742554 C325.58034765 134.88291184 324.97997744 140.35025575 324.95614624 145.60231018 C324.95926622 146.65404476 324.9623862 147.70577934 324.96560073 148.78938466 C324.97358908 152.32012622 324.96725331 155.85069631 324.96096802 159.38143921 C324.96367785 161.91138815 324.96723873 164.4413363 324.97158813 166.97128296 C324.9797749 173.13892274 324.97855556 179.30649895 324.97276285 185.47413959 C324.96824015 190.49906843 324.96763613 195.52398366 324.96981049 200.54891396 C324.97011695 201.26509899 324.97042342 201.98128403 324.97073917 202.71917165 C324.97137868 204.17451197 324.97202711 205.62985229 324.97268435 207.0851926 C324.97839162 220.74470545 324.97182801 234.40419149 324.96108362 248.06369994 C324.95218787 259.73228935 324.95366635 271.40083884 324.96292114 283.06942749 C324.97368641 296.64858335 324.97780015 310.22771552 324.97169662 323.80687505 C324.97105962 325.26318538 324.97043087 326.71949571 324.96981049 328.17580605 C324.96950193 328.89210537 324.96919338 329.6084047 324.96887548 330.34641006 C324.96716416 335.34265741 324.97003033 340.33888952 324.97476959 345.33513451 C324.98105099 352.10588908 324.97641474 358.87656852 324.96498108 365.64731598 C324.96237086 368.11167339 324.9630359 370.57603719 324.96750641 373.04039192 C324.98792893 385.45945485 324.74369577 397.79820439 323.81881714 410.18656921 C323.74239306 411.22182525 323.66596898 412.25708128 323.58722901 413.32370871 C321.48846275 438.72692543 314.0772684 463.98007232 301.70217896 486.26742554 C301.05852021 487.46511144 300.41528892 488.66302717 299.77249146 489.86117554 C295.06943961 498.48363485 289.61685446 506.44093573 283.70217896 514.26742554 C283.01768677 515.17879272 282.33319458 516.09015991 281.62796021 517.02914429 C271.09880109 530.44630133 258.54630357 542.33367919 244.70217896 552.26742554 C244.10582642 552.69748901 243.50947388 553.12755249 242.89505005 553.57064819 C218.67552489 570.83904735 190.11614862 582.11012649 160.70217896 586.26742554 C159.39893677 586.45305054 158.09569458 586.63867554 156.75296021 586.82992554 C149.49771549 587.59657599 142.17774659 587.51176472 134.88967896 587.51742554 C134.10939331 587.51810028 133.32910767 587.51877502 132.525177 587.51947021 C120.34540141 587.50275692 108.62913064 586.922589 96.70217896 584.26742554 C95.58577026 584.03394409 95.58577026 584.03394409 94.44680786 583.79574585 C68.10233652 578.16134664 41.53798184 566.46941751 20.70217896 549.26742554 C19.66182898 548.4301678 18.62146385 547.5929289 17.58108521 546.75570679 C-23.84300264 512.96154974 -48.29172891 466.19241421 -54.29782104 413.26742554 C-55.60473535 399.70402023 -55.44624616 386.11346009 -55.44308472 372.50131226 C-55.44608121 369.91611177 -55.44948486 367.33091174 -55.45326233 364.74571228 C-55.46151072 358.48758205 -55.46431437 352.22946125 -55.46487471 345.97132604 C-55.46535195 340.88591324 -55.46741696 335.80050353 -55.47057533 330.71509171 C-55.47936027 316.27527072 -55.48399724 301.83545712 -55.48324486 287.39563344 C-55.4832049 286.61984827 -55.48316495 285.8440631 -55.48312378 285.04476929 C-55.4830829 284.26803168 -55.48304202 283.49129407 -55.4829999 282.69101895 C-55.48259239 270.06944474 -55.49219384 257.4479002 -55.50626215 244.82633458 C-55.52061649 231.845381 -55.52753309 218.86444192 -55.52666837 205.88348019 C-55.52633643 198.60368219 -55.52908309 191.32391544 -55.53984642 184.0441246 C-55.54988707 177.21010935 -55.54962606 170.37616133 -55.54232979 163.54214287 C-55.54128092 161.03186509 -55.54366465 158.52158325 -55.54969025 156.01131248 C-55.55736934 152.59154894 -55.55279265 149.17201661 -55.5450592 145.7522583 C-55.55020277 144.7537349 -55.55534633 143.7552115 -55.56064576 142.72642982 C-55.51685779 133.99665299 -55.51685779 133.99665299 -53.29782104 130.26742554 C-50.16251875 128.17722401 -49.47950334 128.01996604 -45.91818237 128.04037476 C-45.03749588 128.04052582 -44.15680939 128.04067688 -43.24943542 128.04083252 C-42.30247299 128.05115509 -41.35551056 128.06147766 -40.37985229 128.07211304 C-39.40747116 128.07494293 -38.43509003 128.07777283 -37.4332428 128.08068848 C-34.32547739 128.09188954 -31.21799945 128.11699406 -28.11032104 128.14242554 C-26.00420541 128.15245543 -23.89808527 128.16158126 -21.79196167 128.16976929 C-16.62713725 128.19182865 -11.4625279 128.22635808 -6.29782104 128.26742554 C-6.29966463 127.61989885 -6.30150822 126.97237217 -6.30340767 126.30522346 C-6.34753402 110.56548063 -6.3806519 94.82575923 -6.40144539 79.08596992 C-6.41176766 71.4743948 -6.4258461 63.86286092 -6.44869995 56.25131226 C-6.46860479 49.61879286 -6.48153056 42.98630331 -6.48599803 36.35375488 C-6.48861036 32.84032298 -6.49477005 29.32697651 -6.50928116 25.81357193 C-6.52533106 21.89599225 -6.5258026 17.97849692 -6.52487183 14.06088257 C-6.53206238 12.88988007 -6.53925293 11.71887756 -6.54666138 10.51239014 C-6.54391205 9.4494574 -6.54116272 8.38652466 -6.53833008 7.29138184 C-6.54017366 6.36405809 -6.54201725 5.43673435 -6.5439167 4.48130989 C-6.06854178 0.20482199 -3.74049009 0.01594274 0 0 Z " fill="#024897" transform="translate(489.2978210449219,38.732574462890625)"/>
<path d="M0 0 C24.4096875 -0.12375 24.4096875 -0.12375 49.3125 -0.25 C56.99333862 -0.30462402 56.99333862 -0.30462402 64.8293457 -0.36035156 C71.12731934 -0.37841797 71.12731934 -0.37841797 74.08439636 -0.3817749 C76.13061512 -0.38787972 78.17682032 -0.40186963 80.22294617 -0.42230225 C107.09080073 -0.67697507 107.09080073 -0.67697507 117.27734375 9.0703125 C121.49346649 13.7931348 123.7524868 17.762434 125 24 C129.29 24 133.58 24 138 24 C138.33 22.02 138.66 20.04 139 18 C142.99821511 9.69920738 149.48033642 4.18675615 157.90074348 0.6454525 C161.89131514 -0.58151735 165.92527398 -0.38910736 170.06616211 -0.34057617 C171.56912385 -0.34111858 171.56912385 -0.34111858 173.10244846 -0.34167194 C176.32762083 -0.33944287 179.55226512 -0.31664332 182.77734375 -0.29296875 C184.77575429 -0.28855478 186.7741683 -0.28549617 188.77258301 -0.28381348 C196.16094176 -0.26812094 203.54922613 -0.2262371 210.9375 -0.1875 C227.458125 -0.125625 243.97875 -0.06375 261 0 C261 38.61 261 77.22 261 117 C211.0625 117.3125 211.0625 117.3125 195.33227539 117.38793945 C190.65280796 117.42453162 190.65280796 117.42453162 185.97337341 117.4650116 C183.89963699 117.48109279 181.8258509 117.4914272 179.75205994 117.49711609 C176.59884335 117.50690698 173.44626872 117.53530473 170.29321289 117.56762695 C169.37939126 117.56620099 168.46556963 117.56477503 167.52405643 117.56330585 C156.81078502 117.71930244 146.70102895 121.54089664 138.8828125 129.02734375 C136.05173125 132.18147369 133.78388609 135.14063106 132 139 C131.34 139 130.68 139 130 139 C128.90177292 137.49810026 127.87150626 135.94623545 126.875 134.375 C120.46371916 125.01585189 112.50891596 121.50297199 102 118 C100.59150167 117.90045962 99.17888093 117.8539387 97.766922 117.84178162 C96.47605415 117.82712058 96.47605415 117.82712058 95.15910816 117.81216335 C94.21432952 117.8063931 93.26955088 117.80062284 92.29614258 117.79467773 C91.28473804 117.78464501 90.27333349 117.77461229 89.23128033 117.76427555 C85.95238739 117.73285486 82.67348237 117.7081046 79.39453125 117.68359375 C77.37218834 117.66519361 75.34984935 117.64635711 73.32751465 117.6270752 C65.82255621 117.55858921 58.31752252 117.49856098 50.8125 117.4375 C25.6603125 117.2209375 25.6603125 117.2209375 0 117 C0 78.39 0 39.78 0 0 Z " fill="#EFF0F1" transform="translate(493,50)"/>
<path d="M0 0 C43.89 0 87.78 0 133 0 C133.185625 16.5825 133.37125 33.165 133.5625 50.25 C133.68540405 58.04286621 133.68540405 58.04286621 133.81079102 65.99316406 C133.85144043 72.44091797 133.85144043 72.44091797 133.85899353 75.47943115 C133.87262504 77.55789647 133.9038775 79.63630021 133.95018005 81.71429443 C134.41127282 103.5387337 128.26382973 120.9672526 113.11328125 136.99609375 C98.23588675 151.00018207 80.78851294 155.59487455 60.93359375 155.2734375 C43.21258989 154.58091617 28.17638058 145.43527089 16.00390625 132.953125 C10.59696473 126.54668204 6.92300319 118.81619574 4 111 C3.66177719 110.11180069 3.32355438 109.22360138 2.9750824 108.30848694 C-0.77710951 97.04692038 -0.51265378 86.16585725 -0.390625 74.4140625 C-0.38472953 72.50220203 -0.38065767 70.59033505 -0.37841797 68.6784668 C-0.35761246 61.66054482 -0.30176793 54.64276188 -0.25 47.625 C-0.1675 31.90875 -0.085 16.1925 0 0 Z " fill="#E01113" transform="translate(557,319)"/>
<path d="M0 0 C2.97 0 5.94 0 9 0 C10 1 10 1 10.11352539 3.13305664 C10.10828857 4.04949951 10.10305176 4.96594238 10.09765625 5.91015625 C10.09443359 6.89951172 10.09121094 7.88886719 10.08789062 8.90820312 C10.07532227 10.46958008 10.07532227 10.46958008 10.0625 12.0625 C10.05798828 13.10728516 10.05347656 14.15207031 10.04882812 15.22851562 C10.03699913 17.8190666 10.02051689 20.40950559 10 23 C11.65 23.33 13.3 23.66 15 24 C15.24492188 23.32582031 15.48984375 22.65164063 15.7421875 21.95703125 C17.27261836 18.35909286 19.15843308 15.06123937 21.125 11.6875 C21.49753906 11.04232422 21.87007812 10.39714844 22.25390625 9.73242188 C23.16632213 8.15324055 24.08275509 6.57638136 25 5 C27.9719385 6.12451727 30.33440687 7.22293791 33 9 C32.4462522 14.10454793 29.97407204 17.96575557 27.4375 22.3125 C26.80038086 23.42334961 26.80038086 23.42334961 26.15039062 24.55664062 C25.10648347 26.37468118 24.05407808 28.18783748 23 30 C25.8104127 30.86375069 27.9813592 31.46366703 30.74316406 30.20654297 C32.58668231 29.00728691 34.36148372 27.75160407 36.125 26.4375 C38.38902692 24.7575055 40.51914606 23.38389804 43 22 C45.84190027 22.73293601 46.6439884 23.491412 48.3125 25.875 C49.18282037 28.56508114 49.19405772 29.42083532 48 32 C45.09534281 33.8140337 42.17954392 35.33374043 39.10351562 36.82421875 C34.02459375 39.47179796 33.98451797 40.04644609 32 46 C39.26 46 46.52 46 54 46 C54 49.3 54 52.6 54 56 C46.74 56 39.48 56 32 56 C32.45138643 60.77300786 32.45138643 60.77300786 34.58227539 62.4855957 C35.24735107 62.87835693 35.91242676 63.27111816 36.59765625 63.67578125 C37.31630859 64.11083984 38.03496094 64.54589844 38.77539062 64.99414062 C39.53013672 65.42919922 40.28488281 65.86425781 41.0625 66.3125 C41.82111328 66.76689453 42.57972656 67.22128906 43.36132812 67.68945312 C45.23282995 68.80764604 47.11189393 69.91015891 49 71 C48.38550003 74.33822957 47.65439171 77.02209492 46 80 C40.706739 79.39646931 36.97390239 76.58363356 32.72851562 73.61914062 C30.88163411 72.35475748 30.88163411 72.35475748 28 71 C25.60851367 71.60622759 25.60851367 71.60622759 24 73 C25.1225346 75.27208206 26.24791521 77.54267645 27.375 79.8125 C27.69210937 80.45509766 28.00921875 81.09769531 28.3359375 81.75976562 C29.76458611 84.63194461 31.21785473 87.3267821 33 90 C32.9375 92 32.9375 92 32 94 C29.625 95.8125 29.625 95.8125 27 97 C22.8467069 95.61556897 21.86247369 92.77234182 19.875 89.125 C19.51535156 88.48691406 19.15570312 87.84882813 18.78515625 87.19140625 C17.27983706 84.49085235 15.97973488 81.93920463 15 79 C13.35 79 11.7 79 10 79 C10 86.26 10 93.52 10 101 C8 102 8 102 0 102 C0 94.41 0 86.82 0 79 C-5.74611614 80.52102161 -5.74611614 80.52102161 -8.484375 84.44140625 C-8.86207031 85.10720703 -9.23976563 85.77300781 -9.62890625 86.45898438 C-9.99886719 87.15314453 -10.36882813 87.84730469 -10.75 88.5625 C-14.80213648 95.90106824 -14.80213648 95.90106824 -17 97 C-19.4750171 95.88568235 -21.67883419 94.41849022 -24 93 C-22.66590983 88.5150436 -20.86281314 84.80743125 -18.4375 80.8125 C-15.86936682 76.56826372 -15.86936682 76.56826372 -14 72 C-14.66 72 -15.32 72 -16 72 C-16 71.34 -16 70.68 -16 70 C-16.52956299 70.3081665 -17.05912598 70.61633301 -17.60473633 70.93383789 C-20.00137686 72.32064764 -22.40668157 73.69167897 -24.8125 75.0625 C-25.64587891 75.54783203 -26.47925781 76.03316406 -27.33789062 76.53320312 C-28.14033203 76.98759766 -28.94277344 77.44199219 -29.76953125 77.91015625 C-30.50792236 78.33433838 -31.24631348 78.75852051 -32.00708008 79.19555664 C-34 80 -34 80 -37 79 C-39.07530387 76.07920195 -40 74.62453269 -40 71 C-37.37785672 69.49480613 -34.75255792 67.99568681 -32.125 66.5 C-31.37863281 66.07074219 -30.63226562 65.64148438 -29.86328125 65.19921875 C-29.14785156 64.79316406 -28.43242188 64.38710938 -27.6953125 63.96875 C-26.7055542 63.40317383 -26.7055542 63.40317383 -25.69580078 62.82617188 C-24 62 -24 62 -22 62 C-22.33 60.02 -22.66 58.04 -23 56 C-23.63091553 56.00523682 -24.26183105 56.01047363 -24.91186523 56.01586914 C-27.75373347 56.03657826 -30.59558588 56.04964066 -33.4375 56.0625 C-34.92733398 56.07506836 -34.92733398 56.07506836 -36.44726562 56.08789062 C-37.39150391 56.09111328 -38.33574219 56.09433594 -39.30859375 56.09765625 C-40.18314209 56.10289307 -41.05769043 56.10812988 -41.95874023 56.11352539 C-44 56 -44 56 -45 55 C-45 52.03 -45 49.06 -45 46 C-37.74 46 -30.48 46 -23 46 C-23 44.35 -23 42.7 -23 41 C-24.54360897 39.4045898 -24.54360897 39.4045898 -26.71875 38.32421875 C-27.48574219 37.88916016 -28.25273438 37.45410156 -29.04296875 37.00585938 C-29.85378906 36.57080078 -30.66460938 36.13574219 -31.5 35.6875 C-32.31082031 35.23310547 -33.12164063 34.77871094 -33.95703125 34.31054688 C-35.96260056 33.18978755 -37.97627642 32.0875298 -40 31 C-38.94124926 27.59687262 -37.99097846 24.98646769 -36 22 C-31.60616294 23.59623144 -27.71004193 25.78024333 -23.6875 28.125 C-23.04232422 28.49753906 -22.39714844 28.87007813 -21.73242188 29.25390625 C-20.15324055 30.16632213 -18.57638136 31.08275509 -17 32 C-16.01 30.68 -15.02 29.36 -14 28 C-17.3 22.39 -20.6 16.78 -24 11 C-19 6 -19 6 -16 5 C-14.72881267 7.06228254 -13.45804035 9.12481891 -12.1875 11.1875 C-11.83107422 11.76564453 -11.47464844 12.34378906 -11.10742188 12.93945312 C-9.48731884 15.57026263 -7.92327977 18.15488802 -6.55078125 20.92578125 C-6.03902344 21.61027344 -5.52726563 22.29476563 -5 23 C-3.35 23 -1.7 23 0 23 C0 15.41 0 7.82 0 0 Z " fill="#F9AF13" transform="translate(619,353)"/>
<path d="M0 0 C0.70447266 -0.02900391 1.40894531 -0.05800781 2.13476562 -0.08789062 C8.9749366 -0.16836322 11.75105045 1.48792018 18.8125 4.3125 C18.8125 17.8425 18.8125 31.3725 18.8125 45.3125 C13.3675 44.8175 13.3675 44.8175 7.8125 44.3125 C-1.36330232 43.96548197 -10.28175133 43.80864734 -19.1875 46.3125 C-20.20070313 46.580625 -21.21390625 46.84875 -22.2578125 47.125 C-29.16433719 49.08429778 -35.38426753 51.68478307 -41.7265625 55.04296875 C-49.21855847 58.9078873 -59.67544495 58.68794085 -67.66015625 56.25390625 C-70.7588156 54.77854457 -73.3985138 53.32176963 -76.1875 51.3125 C-76.95441162 50.86583984 -77.72132324 50.41917969 -78.51147461 49.95898438 C-81.86942218 47.64930244 -84.64033448 45.53839884 -85.65386963 41.4152832 C-86.31683011 35.88865406 -86.00669043 30.35744387 -85.75 24.8125 C-85.70480066 23.11468955 -85.6637456 21.41676343 -85.62695312 19.71875 C-85.52831296 15.5804534 -85.37335795 11.44776004 -85.1875 7.3125 C-84.15302734 7.71082031 -84.15302734 7.71082031 -83.09765625 8.1171875 C-73.92530602 11.56468265 -65.69530511 13.6946404 -55.875 13.625 C-55.04468262 13.62008545 -54.21436523 13.6151709 -53.35888672 13.61010742 C-40.38632967 13.36417619 -28.16083922 8.99326746 -16.6875 3.0625 C-11.19562808 0.31656404 -6.07365572 0.0811263 0 0 Z " fill="#EFF0F1" transform="translate(784.1875,318.6875)"/>
<path d="M0 0 C0.8569043 0.42974121 1.71380859 0.85948242 2.59667969 1.30224609 C18.34020774 8.93517025 36.78552259 6.20105644 52.9140625 1.42578125 C54.57835454 1.08078722 56.24469315 0.74530412 57.9140625 0.42578125 C58.11281766 5.28190486 58.25743571 10.13563135 58.35351562 14.99487305 C58.39358608 16.64503236 58.44806298 18.29491047 58.51757812 19.9440918 C59.07678506 33.55831369 59.07678506 33.55831369 56.31738281 37.99023438 C54.27436534 39.83509965 52.34211447 41.14000237 49.9140625 42.42578125 C48.83640625 43.07289063 47.75875 43.72 46.6484375 44.38671875 C45.17117188 45.08667969 45.17117188 45.08667969 43.6640625 45.80078125 C42.66890625 46.28289062 41.67375 46.765 40.6484375 47.26171875 C33.32603852 50.3789686 24.32060074 51.22086547 16.68164062 48.68457031 C12.97719124 47.14078199 9.43167059 45.34538814 5.88671875 43.46875 C-6.273722 37.07584951 -18.16108018 36.11730728 -31.7734375 36.30078125 C-33.05927734 36.30980469 -34.34511719 36.31882812 -35.66992188 36.328125 C-38.80879482 36.35146235 -41.94726226 36.38420092 -45.0859375 36.42578125 C-45.20960341 30.94490793 -45.30030693 25.46484768 -45.3605957 19.98291016 C-45.38572897 18.11850844 -45.41984133 16.25420515 -45.46313477 14.39013672 C-45.52384102 11.70906294 -45.55215808 9.02929223 -45.57421875 6.34765625 C-45.60002518 5.515224 -45.6258316 4.68279175 -45.65242004 3.82513428 C-45.65522309 -1.96797735 -45.65522309 -1.96797735 -42.74291992 -5.06933594 C-28.77812702 -12.97882629 -12.94988853 -6.44094749 0 0 Z " fill="#EFF0F1" transform="translate(490.0859375,326.57421875)"/>
<path d="M0 0 C3.62508488 3.62508488 6.57791022 6.89679398 9.625 10.9375 C10.50455814 12.09554621 11.3847899 13.25308103 12.265625 14.41015625 C12.71615234 15.00328613 13.16667969 15.59641602 13.63085938 16.20751953 C15.85314342 19.11693634 18.1115939 21.99751986 20.375 24.875 C20.82955566 25.45306396 21.28411133 26.03112793 21.75244141 26.62670898 C25.64725686 31.56981422 29.58023358 36.48201031 33.5168457 41.3918457 C38.26494262 47.31871697 42.95799697 53.28784633 47.64111328 59.26611328 C49.92453295 62.17966817 52.21245445 65.08968416 54.5 68 C57.24048208 71.48656157 59.98009622 74.97378146 62.71484375 78.46484375 C63.62231681 79.62245779 64.52986888 80.78000989 65.4375 81.9375 C65.88287109 82.505896 66.32824219 83.07429199 66.78710938 83.65991211 C69.25549 86.80321297 71.74320025 89.92943846 74.25390625 93.0390625 C74.79539307 93.71074463 75.33687988 94.38242676 75.89477539 95.07446289 C76.93676865 96.36494976 77.98137937 97.65332919 79.02905273 98.93920898 C81.63552093 102.16801179 83.96629874 105.36544606 86 109 C77.7000146 113.01612197 68.67989494 112.52506035 60 110 C56.41494208 108.50447876 52.92947522 106.81248827 49.49023438 105.00805664 C33.23853309 96.68396664 18.65654761 99 0 99 C0 66.33 0 33.66 0 0 Z " fill="#EFEFF1" transform="translate(445,178)"/>
<path d="M0 0 C0.9590625 0.49628906 1.918125 0.99257813 2.90625 1.50390625 C5.15138809 2.57664162 7.40150255 3.63901839 9.65625 4.69140625 C10.66171875 5.17996094 11.6671875 5.66851562 12.703125 6.171875 C23.69602174 10.74331133 38.29049376 12.14191757 49.62109375 8.0078125 C52.33365984 6.86691403 54.94986325 5.59030132 57.55859375 4.23046875 C60.63949902 2.64148377 63.59512431 1.50482669 66.90625 0.50390625 C67.09960938 1.67308594 67.29296875 2.84226562 67.4921875 4.046875 C67.75491686 5.59510157 68.01795392 7.14327595 68.28125 8.69140625 C68.40757812 9.46033203 68.53390625 10.22925781 68.6640625 11.02148438 C69.36546914 15.10717803 70.28800999 18.66756141 71.90625 22.50390625 C72.19639493 29.90260186 67.63485281 34.34930318 62.90625 39.50390625 C56.92905347 45.94828595 49.93418799 49.03484285 41.1796875 49.8515625 C32.37586959 50.0544561 25.87790579 48.91871049 18.03515625 45.109375 C-0.22932694 36.27893331 -16.08399945 35.28060063 -36.09375 37.50390625 C-36.09375 25.62390625 -36.09375 13.74390625 -36.09375 1.50390625 C-24.48670944 -5.12868836 -12.19111565 -5.87785933 0 0 Z " fill="#EEEFF1" transform="translate(481.09375,408.49609375)"/>
<path d="M0 0 C0.99 0.495 0.99 0.495 2 1 C2 12.88 2 24.76 2 37 C-1.3 36.67 -4.6 36.34 -8 36 C-25.08733531 35.12888095 -40.26326649 38.58257033 -55.53515625 46.27734375 C-61.0637515 48.94206976 -66.07070813 49.37978745 -72.125 49.4375 C-73.2538562 49.45272705 -73.2538562 49.45272705 -74.40551758 49.46826172 C-84.03479594 49.31838147 -91.03891926 45.51278216 -98 39 C-106.04965938 29.8068376 -106.04965938 29.8068376 -105.94921875 26.15234375 C-105.38569879 21.38345097 -104.57550315 16.76053579 -103.4765625 12.0859375 C-102.8648527 9.40845363 -102.41750959 6.71381234 -102 4 C-101.18208984 4.29003906 -101.18208984 4.29003906 -100.34765625 4.5859375 C-99.59355469 4.84632813 -98.83945312 5.10671875 -98.0625 5.375 C-97.33160156 5.63023437 -96.60070312 5.88546875 -95.84765625 6.1484375 C-88.22170504 8.42890028 -81.15358466 9.36096814 -73.1875 9.3125 C-72.21482178 9.30686035 -71.24214355 9.3012207 -70.23999023 9.29541016 C-56.52556351 9.06375917 -44.00292535 4.66984657 -31.8671875 -1.625 C-22.06466327 -6.32593805 -9.23903185 -5.49049864 0 0 Z " fill="#EEEFF1" transform="translate(801,409)"/>
<path d="M0 0 C0.33 0 0.66 0 1 0 C1 32.67 1 65.34 1 99 C-0.65 98.67 -2.3 98.34 -4 98 C-8.37243435 97.75465 -12.74635218 97.76887348 -17.125 97.75 C-18.29804687 97.729375 -19.47109375 97.70875 -20.6796875 97.6875 C-30.60230377 97.64339948 -39.02849766 99.48531593 -48.125 103.4375 C-49.61580078 104.07751953 -49.61580078 104.07751953 -51.13671875 104.73046875 C-54.42753895 106.18956366 -57.70708504 107.67153902 -60.96484375 109.203125 C-65.39998683 110.93972613 -69.58433427 111.11445787 -74.3125 111.0625 C-75.38113281 111.05347656 -76.44976563 111.04445313 -77.55078125 111.03515625 C-78.35902344 111.02355469 -79.16726563 111.01195312 -80 111 C-78.19734708 106.9918667 -75.68207184 103.47222264 -73.1875 99.875 C-72.70321533 99.17415283 -72.21893066 98.47330566 -71.7199707 97.7512207 C-63.12713636 85.36916134 -54.19312626 73.23216944 -45.2355957 61.11279297 C-41.24374267 55.70647765 -37.29799005 50.268937 -33.375 44.8125 C-28.83909335 38.50595027 -24.22409947 32.26696832 -19.54101562 26.0690918 C-14.99453162 20.03503808 -10.57777369 13.91013445 -6.1875 7.76171875 C-5.66929687 7.03855469 -5.15109375 6.31539062 -4.6171875 5.5703125 C-3.93052002 4.60762451 -3.93052002 4.60762451 -3.22998047 3.62548828 C-2 2 -2 2 0 0 Z " fill="#EEEFF1" transform="translate(802,179)"/>
<path d="M0 0 C-5.46287054 25.83482524 -21.37782012 49.72114176 -39.0234375 68.83203125 C-40.7395647 70.71434468 -42.35052088 72.63431566 -43.9375 74.625 C-44.9584375 75.800625 -44.9584375 75.800625 -46 77 C-46.66 77 -47.32 77 -48 77 C-49.49920204 75.07333953 -50.88064546 73.1418388 -52.25 71.125 C-56.24723926 65.37878338 -60.42153709 59.81307937 -64.75 54.3125 C-70.1588979 47.42103832 -75.40634766 40.43041206 -80.57763672 33.359375 C-87.58151857 23.80271324 -94.79201876 14.40312634 -102 5 C-101.67 4.34 -101.34 3.68 -101 3 C-100.33355469 3.32613281 -99.66710937 3.65226562 -98.98046875 3.98828125 C-98.05878906 4.42527344 -97.13710938 4.86226563 -96.1875 5.3125 C-94.84751953 5.95638672 -94.84751953 5.95638672 -93.48046875 6.61328125 C-84.38155606 10.23854949 -76.02711219 11.52793503 -66.25 11.4375 C-65.10837402 11.43065186 -63.96674805 11.42380371 -62.79052734 11.41674805 C-49.31223568 11.16126715 -38.28493988 7.36408532 -26 2 C-17.04132212 -1.812991 -9.25481059 -4.08781386 0 0 Z " fill="#EEEEF0" transform="translate(794,489)"/>
<path d="M0 0 C4.33036988 1.69551999 8.58377356 3.56524025 12.8034668 5.51977539 C22.69200925 10.03044807 31.4665184 11.67688303 42.36328125 11.62109375 C43.59054932 11.61827393 44.81781738 11.6154541 46.08227539 11.61254883 C56.97367413 11.4203939 68.21506933 10.16109085 77.7109375 4.390625 C78.42121094 3.97167969 79.13148438 3.55273438 79.86328125 3.12109375 C80.85328125 3.61609375 80.85328125 3.61609375 81.86328125 4.12109375 C74.62318933 14.02651307 67.32097508 23.8781683 59.86328125 33.62109375 C54.65302389 40.42912977 49.50212459 47.27508776 44.42578125 54.18359375 C43.85037598 54.96387939 43.2749707 55.74416504 42.68212891 56.5480957 C40.13715911 60.0035663 37.60959317 63.46793366 35.1328125 66.97265625 C34.72281006 67.54363037 34.31280762 68.11460449 33.89038086 68.70288086 C32.82803783 70.18349754 31.77863801 71.6733782 30.73046875 73.1640625 C30.11429687 73.80988281 29.498125 74.45570313 28.86328125 75.12109375 C24.86328125 75.12109375 24.86328125 75.12109375 22.63671875 73.390625 C12.47385269 62.97948046 4.08341879 51.77630356 -3.13671875 39.12109375 C-3.49620605 38.49783203 -3.85569336 37.87457031 -4.22607422 37.23242188 C-20.13671875 9.37326295 -20.13671875 9.37326295 -20.13671875 -0.87890625 C-14.2297999 -3.83236568 -6.00153555 -2.00051185 0 0 Z " fill="#EEEFF0" transform="translate(474.13671875,488.87890625)"/>
<path d="M0 0 C6.105 -0.0825 12.21 -0.165 18.5 -0.25 C20.41103516 -0.28641602 22.32207031 -0.32283203 24.29101562 -0.36035156 C25.82941571 -0.37204922 27.3678283 -0.38223849 28.90625 -0.390625 C29.68581055 -0.41108887 30.46537109 -0.43155273 31.26855469 -0.45263672 C36.96658998 -0.4562114 41.23078325 0.83413989 46 4 C49.54711702 7.63579495 50.28578227 10.56629785 50.5 15.5 C50.32670932 20.4054592 49.23275061 23.19676399 46 27 C45.34 27.99 44.68 28.98 44 30 C44.5775 30.2475 45.155 30.495 45.75 30.75 C49.48597363 32.82554091 51.64391315 34.93173944 53 39 C53.66077234 47.09446119 52.99678382 52.33726422 47.75 58.75 C42.18579032 63.30253519 35.86428638 63.28476969 29.00390625 63.1953125 C28.26394409 63.19329834 27.52398193 63.19128418 26.76159668 63.18920898 C24.02850033 63.17883777 21.29549316 63.15091602 18.5625 63.125 C12.436875 63.08375 6.31125 63.0425 0 63 C0 42.21 0 21.42 0 0 Z M14 11 C14 15.29 14 19.58 14 24 C17.08427046 24.10800947 20.16475747 24.18731002 23.25 24.25 C24.55904297 24.30027344 24.55904297 24.30027344 25.89453125 24.3515625 C31.08250189 24.48869044 31.08250189 24.48869044 35.57421875 22.140625 C37.14265634 20.06275503 37.14265634 20.06275503 37.5625 17.5 C37.18184463 14.84431518 37.18184463 14.84431518 35.046875 12.859375 C30.842758 10.29378565 27.50376675 10.55233159 22.6875 10.75 C21.43356445 10.77707031 21.43356445 10.77707031 20.15429688 10.8046875 C18.10236772 10.85158874 16.05103244 10.92332589 14 11 Z M14 36 C14 40.95 14 45.9 14 51 C17.41751005 51.10792137 20.83161597 51.18727736 24.25 51.25 C25.21808594 51.28351562 26.18617188 51.31703125 27.18359375 51.3515625 C32.74460827 51.51647735 32.74460827 51.51647735 37.63671875 49.203125 C39.6648341 45.92559762 39.60550195 43.76756767 39 40 C36.81219527 37.45057465 35.08613572 36.15037196 31.71459961 35.68359375 C29.02794677 35.60624339 26.37335242 35.6512973 23.6875 35.75 C22.75615234 35.76804687 21.82480469 35.78609375 20.86523438 35.8046875 C18.57637851 35.85163839 16.28805473 35.92337677 14 36 Z " fill="#FFFFFF" transform="translate(870,719)"/>
<path d="M0 0 C6.14625 -0.061875 12.2925 -0.12375 18.625 -0.1875 C20.55424316 -0.21481201 22.48348633 -0.24212402 24.47119141 -0.27026367 C26.01464208 -0.27903238 27.55809974 -0.28667541 29.1015625 -0.29296875 C29.89135498 -0.30831665 30.68114746 -0.32366455 31.49487305 -0.33947754 C37.092863 -0.34211065 41.39038929 0.5639501 45.64453125 4.53515625 C49.98491492 10.21104258 50.81831137 13.88614648 50 21 C48.26460898 24.23939656 46.57678866 26.42321134 44 29 C44.48210937 29.38671875 44.96421875 29.7734375 45.4609375 30.171875 C46.09257813 30.69265625 46.72421875 31.2134375 47.375 31.75 C48.00148438 32.26046875 48.62796875 32.7709375 49.2734375 33.296875 C52.62078943 36.59878777 53.32505063 39.61973188 53.4375 44.25 C53.32241692 49.99648169 51.84674049 53.74146745 48 58 C41.83193931 62.90927279 36.9643163 63.14668772 29.296875 63.09765625 C28.5538916 63.09664917 27.8109082 63.09564209 27.04541016 63.09460449 C24.28025765 63.08938776 21.51512721 63.0754265 18.75 63.0625 C12.5625 63.041875 6.375 63.02125 0 63 C0 42.21 0 21.42 0 0 Z M14 11 C14 15.29 14 19.58 14 24 C17.08479556 24.13503482 20.16368583 24.23411031 23.25 24.3125 C24.12269531 24.35439453 24.99539063 24.39628906 25.89453125 24.43945312 C31.26772536 24.60382474 31.26772536 24.60382474 35.609375 21.64453125 C37.20362261 19.11075265 37.20362261 19.11075265 37 16.375 C35.71992903 13.33483145 34.91686974 12.58072599 32 11 C28.9079538 10.63411286 25.85796949 10.71780405 22.75 10.8125 C21.48929688 10.83280273 21.48929688 10.83280273 20.203125 10.85351562 C18.13514062 10.88876536 16.06748729 10.9425698 14 11 Z M14 36 C14 40.95 14 45.9 14 51 C17.41751005 51.10792137 20.83161597 51.18727736 24.25 51.25 C25.21808594 51.28351562 26.18617187 51.31703125 27.18359375 51.3515625 C32.75749933 51.52038303 32.75749933 51.52038303 37.64453125 49.171875 C39.48795347 46.21814948 39.49913211 44.42262016 39 41 C37.22015595 37.8640843 36.47691793 37.15897264 33 36 C31.51876453 35.9193378 30.03417796 35.89238807 28.55078125 35.90234375 C27.70322266 35.90556641 26.85566406 35.90878906 25.98242188 35.91210938 C25.10134766 35.92048828 24.22027344 35.92886719 23.3125 35.9375 C21.97348633 35.94426758 21.97348633 35.94426758 20.60742188 35.95117188 C18.40491927 35.96294996 16.20245115 35.98088519 14 36 Z " fill="#FFFFFF" transform="translate(1054,719)"/>
<path d="M0 0 C1.87265396 0.29833984 1.87265396 0.29833984 4 1 C5.59814006 3.53075147 6.91897771 5.94435623 8.21777344 8.625 C8.61825394 9.42333252 9.01873444 10.22166504 9.43135071 11.04418945 C10.75418725 13.68964054 12.0568073 16.34451802 13.359375 19 C14.27172434 20.83521446 15.18525297 22.6698431 16.09991455 24.50390625 C18.5060643 29.33727877 20.89493138 34.1790036 23.28070068 39.02246094 C25.23563479 42.98414023 27.20248252 46.93984226 29.17004013 50.89526367 C33.22575814 59.04898574 37.27384549 67.20653947 41.29980469 75.375 C41.67690079 76.13659424 42.05399689 76.89818848 42.44252014 77.68286133 C45 82.88445865 45 82.88445865 45 84 C41.7 84 38.4 84 35 84 C33.1435021 80.33637915 31.29223121 76.6701704 29.44580078 73.00146484 C28.81670569 71.75334278 28.18617759 70.50594195 27.55419922 69.25927734 C26.64696403 67.46901889 25.74527404 65.67595372 24.84375 63.8828125 C24.29912109 62.80402832 23.75449219 61.72524414 23.19335938 60.61376953 C22 58 22 58 22 56 C8.8 56.33 -4.4 56.66 -18 57 C-22.23546219 65.5105101 -22.23546219 65.5105101 -26.46655273 74.02319336 C-26.99192627 75.07643799 -27.5172998 76.12968262 -28.05859375 77.21484375 C-28.59798584 78.29886475 -29.13737793 79.38288574 -29.69311523 80.49975586 C-31 83 -31 83 -32 84 C-33.68608966 84.07205511 -35.37500659 84.08386068 -37.0625 84.0625 C-38.44115234 84.04896484 -38.44115234 84.04896484 -39.84765625 84.03515625 C-40.55792969 84.02355469 -41.26820313 84.01195312 -42 84 C-32.6743925 63.96721353 -22.8732945 44.15048167 -12.4987793 24.6394043 C-8.17968992 16.50281471 -4.08388071 8.25654144 0 0 Z " fill="#074C9A" transform="translate(559,67)"/>
<path d="M0 0 C6.27 -0.0825 12.54 -0.165 19 -0.25 C20.96324219 -0.28641602 22.92648437 -0.32283203 24.94921875 -0.36035156 C26.52863476 -0.3720486 28.10806295 -0.38223801 29.6875 -0.390625 C30.88922852 -0.4213208 30.88922852 -0.4213208 32.11523438 -0.45263672 C37.82276185 -0.45612543 42.27345643 0.69743018 47 4 C51.8844698 10.13689796 52.64291257 15.38029544 52 23 C50.01301998 28.85055228 46.25619417 32.30515384 40.80859375 35.140625 C40.21175781 35.42421875 39.61492187 35.7078125 39 36 C39.46148437 36.4640625 39.92296875 36.928125 40.3984375 37.40625 C45.09582179 42.38213533 48.88781503 47.65178285 52.5 53.4375 C52.94520996 54.14777344 53.39041992 54.85804688 53.84912109 55.58984375 C57 60.73211768 57 60.73211768 57 63 C51.68661962 63.63837944 46.25879909 64.28652763 41 63 C37.18399821 59.98093761 35.27441349 56.24659635 33 52 C31.60599545 49.7979891 30.18957288 47.6099941 28.75 45.4375 C27.81414062 43.95056641 27.81414062 43.95056641 26.859375 42.43359375 C23.12724989 37.54890059 20.3429401 37.9061343 14 37 C14 45.58 14 54.16 14 63 C9.38 63 4.76 63 0 63 C0 42.21 0 21.42 0 0 Z M14 11 C14 15.95 14 20.9 14 26 C17.06398451 26.13530844 20.12197126 26.2342407 23.1875 26.3125 C24.48397461 26.3753418 24.48397461 26.3753418 25.80664062 26.43945312 C30.33758148 26.52625276 32.3561043 26.47542991 36.10546875 23.70703125 C38.32764682 21.05508065 38.32764682 21.05508065 38.125 17.375 C37.31289929 13.97167525 37.31289929 13.97167525 35.01171875 12.30078125 C30.83641128 10.49743833 27.17909694 10.67424248 22.6875 10.8125 C21.43356445 10.83280273 21.43356445 10.83280273 20.15429688 10.85351562 C18.10258502 10.88868783 16.05120725 10.94248952 14 11 Z " fill="#FFFFFF" transform="translate(314,719)"/>
<path d="M0 0 C4.62 0 9.24 0 14 0 C17.40383405 3.72708515 19.14684983 6.1901317 21.3125 10.5625 C22.39155266 12.54317278 23.47098668 14.52363784 24.55078125 16.50390625 C25.68902344 18.64761719 26.82726562 20.79132812 28 23 C32.455 30.425 32.455 30.425 37 38 C37.33 25.46 37.66 12.92 38 0 C42.29 0 46.58 0 51 0 C51 20.79 51 41.58 51 63 C46.38 63 41.76 63 37 63 C34.07235499 59.75844271 32.78632333 57.79368512 31 54 C29.92300631 52.23413925 28.82603093 50.48033355 27.7109375 48.73828125 C26.5973568 46.93067315 25.48538883 45.12207058 24.375 43.3125 C23.25881187 41.49547946 22.14164944 39.67905701 21.0234375 37.86328125 C20.53794434 37.07219971 20.05245117 36.28111816 19.55224609 35.46606445 C17.75450607 32.60998203 15.87198586 29.8079788 14 27 C13.67 38.88 13.34 50.76 13 63 C8.71 63 4.42 63 0 63 C0 42.21 0 21.42 0 0 Z " fill="#FFFFFF" transform="translate(111,719)"/>
<path d="M0 0 C1.22589844 -0.0309375 1.22589844 -0.0309375 2.4765625 -0.0625 C13.31205829 -0.13107909 23.27854406 3.95708066 31.1796875 11.4296875 C38.39523349 19.2795672 41.41714773 26.54763823 41.2734375 37.2109375 C40.11260426 46.06513611 35.05172752 53.0977471 28.2578125 58.625 C24.36128356 61.28230498 19.72316339 64.25 14.875 64.25 C14.875 66.56 14.875 68.87 14.875 71.25 C22.135 71.25 29.395 71.25 36.875 71.25 C36.875 73.89 36.875 76.53 36.875 79.25 C28.295 79.25 19.715 79.25 10.875 79.25 C10.875 71.33 10.875 63.41 10.875 55.25 C17.625 52.125 17.625 52.125 19.72949219 51.18310547 C24.20981475 49.02308845 26.47003748 46.74471151 28.875 42.25 C30.74927753 36.83992323 30.90983776 30.88864535 28.81640625 25.55078125 C24.85372497 18.36640787 20.28522265 14.73053738 12.58203125 12.14453125 C2.5131516 9.71484375 -8.35323787 10.13597247 -17.3046875 15.57421875 C-21.56055646 18.54397346 -25.0512892 21.41134148 -27.125 26.25 C-27.82537587 32.37828887 -28.10519669 38.05435941 -25.5625 43.75 C-20.17755636 49.27301912 -16.44760698 52.11173986 -9.125 55.25 C-9.125 63.17 -9.125 71.09 -9.125 79.25 C-17.705 79.25 -26.285 79.25 -35.125 79.25 C-35.125 76.61 -35.125 73.97 -35.125 71.25 C-27.535 71.25 -19.945 71.25 -12.125 71.25 C-12.125 68.94 -12.125 66.63 -12.125 64.25 C-13.22908203 64.064375 -13.22908203 64.064375 -14.35546875 63.875 C-22.89720651 61.9473864 -29.25132111 56.33498692 -34.125 49.25 C-37.76367892 42.32113535 -39.5207075 35.02301714 -38.125 27.25 C-34.32003766 16.30726158 -28.06173561 9.04220647 -17.8125 3.8125 C-11.51646829 0.8539294 -6.85929376 0.04208156 0 0 Z " fill="#064C9A" transform="translate(686.125,70.75)"/>
<path d="M0 0 C0.60070313 0.41507813 1.20140625 0.83015625 1.8203125 1.2578125 C2.46226563 1.69351563 3.10421875 2.12921875 3.765625 2.578125 C10.41513062 7.66958746 13.69821559 15.02910184 14.8203125 23.2578125 C15.68015708 34.87325676 14.56088566 45.18378952 6.85546875 54.3125 C-0.79563471 61.62583881 -9.06410055 62.72534061 -19.26953125 62.54296875 C-26.55406803 62.01172881 -34.11792094 59.75344477 -39.1796875 54.2578125 C-46.81581055 43.82049858 -48.4822345 32.92804338 -46.5546875 20.3203125 C-44.6643225 11.8793077 -40.30114324 5.42818912 -33.3046875 0.4140625 C-24.1619902 -4.56064044 -9.21441333 -5.16729846 0 0 Z M-27.9921875 13.6953125 C-33.01392156 19.57791525 -33.22319971 25.69538959 -33.1796875 33.2578125 C-32.45469621 38.9719912 -30.98680643 42.9706691 -26.6171875 46.8203125 C-21.57086522 50.65117651 -17.42790764 50.79167941 -11.1796875 50.2578125 C-6.60908241 48.42957046 -4.00665213 45.23084387 -1.1796875 41.2578125 C1.9632524 33.47529466 1.80671068 25.05588232 -1.13671875 17.234375 C-3.43187025 12.88476205 -6.79984222 10.83734752 -11.3046875 8.9453125 C-18.01843673 7.33985073 -22.87088561 9.25685087 -27.9921875 13.6953125 Z " fill="#FFFFFF" transform="translate(1185.1796875,720.7421875)"/>
<path d="M0 0 C0.62261719 0.43570313 1.24523437 0.87140625 1.88671875 1.3203125 C2.60214844 1.81789063 3.31757812 2.31546875 4.0546875 2.828125 C10.19509707 7.63755326 13.44065092 13.68453375 14.88671875 21.3203125 C15.56505286 33.1389799 15.4413886 43.96563117 7.625 53.56640625 C1.27764963 59.97081145 -6.37721385 62.60128123 -15.30078125 62.6953125 C-24.04078495 62.54950282 -31.4821453 61.13900999 -38.05078125 55.0703125 C-46.85559556 45.27310905 -46.7407001 34.28282636 -46.296875 21.78027344 C-45.7368707 14.2768115 -42.33324502 8.54027627 -37.11328125 3.3203125 C-27.49898869 -4.04382648 -10.91776918 -6.13454221 0 0 Z M-24.11328125 10.3203125 C-28.79331373 14.68146501 -31.90666835 18.27531259 -32.3515625 24.83203125 C-32.55496981 32.50812597 -32.72214424 38.84299154 -28.11328125 45.3203125 C-23.28773045 49.8011811 -20.16021974 50.6867005 -13.71875 50.59375 C-9.49272088 50.1502387 -7.48840939 48.95291245 -4.11328125 46.3203125 C1.25607755 39.1175141 1.45116327 31.9922328 0.88671875 23.3203125 C-0.22313326 17.82348639 -2.53179104 13.63458201 -7.11328125 10.3203125 C-13.00674997 8.22908166 -18.3640648 7.49994217 -24.11328125 10.3203125 Z " fill="#FFFFFF" transform="translate(1001.11328125,720.6796875)"/>
<path d="M0 0 C8.1984375 -0.0928125 8.1984375 -0.0928125 16.5625 -0.1875 C19.12946655 -0.22846802 19.12946655 -0.22846802 21.74829102 -0.27026367 C23.12515561 -0.27903653 24.50202807 -0.28667857 25.87890625 -0.29296875 C26.92637024 -0.3159906 26.92637024 -0.3159906 27.99499512 -0.33947754 C35.39158967 -0.34336707 40.97445572 2.28743211 46.42578125 7.1875 C54.02823959 15.94070265 53.60795566 27.83292605 53.18359375 38.70507812 C52.57943445 46.25706944 49.50909859 52.86652177 44 58 C37.52710565 62.00518413 32.21797639 63.12784911 24.609375 63.09765625 C23.31999023 63.09515869 22.03060547 63.09266113 20.70214844 63.09008789 C18.25083496 63.07643188 18.25083496 63.07643188 15.75 63.0625 C7.95375 63.0315625 7.95375 63.0315625 0 63 C0 42.21 0 21.42 0 0 Z M14 11 C14 24.2 14 37.4 14 51 C30.12508132 52.8138558 30.12508132 52.8138558 37 46 C39.26026351 41.33575681 39.3862661 36.7184028 39.375 31.625 C39.37338867 30.87202637 39.37177734 30.11905273 39.37011719 29.34326172 C39.22057203 22.58880556 38.01241778 18.01241778 33.0625 13.0625 C27.03792025 9.95892861 20.69242966 11 14 11 Z " fill="#FFFFFF" transform="translate(459,719)"/>
<path d="M0 0 C5.424375 -0.0825 10.84875 -0.165 16.4375 -0.25 C18.97715454 -0.30462402 18.97715454 -0.30462402 21.56811523 -0.36035156 C30.19460026 -0.46955074 38.13922589 -0.4719642 44.82519531 5.67919922 C52.90898956 14.19850979 53.38567658 24.58288943 53.2109375 35.7578125 C52.90177149 44.41827759 50.32230355 51.87571043 44 58 C37.72009829 62.17450114 32.08466496 63.1273201 24.609375 63.09765625 C23.31999023 63.09515869 22.03060547 63.09266113 20.70214844 63.09008789 C18.25083496 63.07643188 18.25083496 63.07643188 15.75 63.0625 C7.95375 63.0315625 7.95375 63.0315625 0 63 C0 42.21 0 21.42 0 0 Z M14 11 C14 24.2 14 37.4 14 51 C30.12508132 52.8138558 30.12508132 52.8138558 37 46 C40.2108526 38.07002687 40.51456546 27.48010695 37.8125 19.3125 C35.88418792 15.78834345 34.43957878 14.04736832 31 12 C24.88867523 10.60776773 24.88867523 10.60776773 14 11 Z " fill="#FFFFFF" transform="translate(672,719)"/>
<path d="M0 0 C5.424375 -0.0825 10.84875 -0.165 16.4375 -0.25 C18.97715454 -0.30462402 18.97715454 -0.30462402 21.56811523 -0.36035156 C30.19460026 -0.46955074 38.13922589 -0.4719642 44.82519531 5.67919922 C52.90898956 14.19850979 53.38567658 24.58288943 53.2109375 35.7578125 C52.90177149 44.41827759 50.32230355 51.87571043 44 58 C37.72009829 62.17450114 32.08466496 63.1273201 24.609375 63.09765625 C23.31999023 63.09515869 22.03060547 63.09266113 20.70214844 63.09008789 C18.25083496 63.07643188 18.25083496 63.07643188 15.75 63.0625 C7.95375 63.0315625 7.95375 63.0315625 0 63 C0 42.21 0 21.42 0 0 Z M13 11 C13 24.2 13 37.4 13 51 C29.99704444 52.9205532 29.99704444 52.9205532 37 46 C40.2108526 38.07002687 40.51456546 27.48010695 37.8125 19.3125 C35.88418792 15.78834345 34.43957878 14.04736832 31 12 C24.72524512 10.57508171 24.72524512 10.57508171 13 11 Z " fill="#FFFFFF" transform="translate(585,719)"/>
<path d="M0 0 C0.76892578 -0.01611328 1.53785156 -0.03222656 2.33007812 -0.04882812 C8.60713663 -0.05412522 14.31736892 0.91618562 19.24609375 5.03125 C19.92865234 5.91296875 19.92865234 5.91296875 20.625 6.8125 C21.09808594 7.4003125 21.57117188 7.988125 22.05859375 8.59375 C24.55118394 12.388697 24.2704637 15.91542384 24.1875 20.3125 C19.8975 20.3125 15.6075 20.3125 11.1875 20.3125 C10.775 19.36375 10.3625 18.415 9.9375 17.4375 C8.47300642 14.37303129 8.47300642 14.37303129 6.5 12.9375 C1.72964734 11.6482155 -2.28158059 11.70651107 -6.8125 13.5 C-7.8025 14.3971875 -7.8025 14.3971875 -8.8125 15.3125 C-8.97933726 17.88820994 -8.97933726 17.88820994 -8.8125 20.3125 C-8.27625 20.47105469 -7.74 20.62960937 -7.1875 20.79296875 C-5.48116887 21.30093904 -3.77697875 21.81612204 -2.07421875 22.3359375 C0.33500276 23.0572613 2.74431161 23.74534795 5.16796875 24.4140625 C18.94034785 28.31575469 18.94034785 28.31575469 24.1875 34.3125 C27.31693763 40.64613999 27.22245985 48.02498048 25.125 54.6875 C20.6989854 60.68403591 16.53084726 63.64668345 9.1875 65.3125 C0.21383239 66.09918238 -8.99688601 66.37927637 -16.8125 61.3125 C-21.02693137 57.67116076 -23.61633506 53.81485871 -24.8125 48.3125 C-24.9375 45.4375 -24.9375 45.4375 -24.8125 43.3125 C-21.79759443 42.30753148 -19.77068308 42.20914697 -16.625 42.25 C-15.72394531 42.25902344 -14.82289063 42.26804687 -13.89453125 42.27734375 C-13.20746094 42.28894531 -12.52039063 42.30054688 -11.8125 42.3125 C-11.57015625 42.86679687 -11.3278125 43.42109375 -11.078125 43.9921875 C-10.74296875 44.71664062 -10.4078125 45.44109375 -10.0625 46.1875 C-9.73765625 46.90679688 -9.4128125 47.62609375 -9.078125 48.3671875 C-7.52909504 50.74810391 -6.48155449 51.37856797 -3.8125 52.3125 C1.60872145 53.08003508 5.82520884 53.22942674 10.4375 50.125 C12.43221335 47.50355876 12.43221335 47.50355876 12.09375 44.765625 C11.42398463 42.1632631 11.42398463 42.1632631 9.140625 41.08984375 C8.24859375 40.81269531 7.3565625 40.53554688 6.4375 40.25 C5.44621094 39.92515625 4.45492188 39.6003125 3.43359375 39.265625 C1.24621872 38.62336326 -0.94960152 38.00927293 -3.15234375 37.421875 C-11.43061032 35.14221233 -17.60498371 32.39106746 -22.3125 24.9375 C-23.30694858 19.71664495 -23.43794203 15.11933252 -21.6875 10.0625 C-16.02145864 1.75230601 -9.42204957 -0.03890194 0 0 Z " fill="#FFFFFF" transform="translate(398.8125,717.6875)"/>
<path d="M0 0 C15.51 0 31.02 0 47 0 C47 3.63 47 7.26 47 11 C36.11 11 25.22 11 14 11 C14 15.29 14 19.58 14 24 C24.23 24 34.46 24 45 24 C45 27.96 45 31.92 45 36 C34.77 36 24.54 36 14 36 C14 40.95 14 45.9 14 51 C25.22 51 36.44 51 48 51 C48 54.96 48 58.92 48 63 C32.16 63 16.32 63 0 63 C0 42.21 0 21.42 0 0 Z " fill="#FFFFFF" transform="translate(256,719)"/>
<path d="M0 0 C15.51 0 31.02 0 47 0 C47 3.63 47 7.26 47 11 C35.78 11 24.56 11 13 11 C13 15.29 13 19.58 13 24 C23.56 24 34.12 24 45 24 C45 27.96 45 31.92 45 36 C34.44 36 23.88 36 13 36 C13 40.95 13 45.9 13 51 C24.55 51 36.1 51 48 51 C48 54.96 48 58.92 48 63 C32.16 63 16.32 63 0 63 C0 42.21 0 21.42 0 0 Z " fill="#FFFFFF" transform="translate(735,719)"/>
<path d="M0 0 C1.93166016 0.01740234 1.93166016 0.01740234 3.90234375 0.03515625 C5.19269531 0.04417969 6.48304688 0.05320312 7.8125 0.0625 C8.81152344 0.07410156 9.81054688 0.08570313 10.83984375 0.09765625 C14.29129002 6.70211546 17.09017009 13.47383188 19.82421875 20.40234375 C20.2846759 21.5626712 20.74513306 22.72299866 21.21954346 23.91848755 C22.43216735 26.9776596 23.64132084 30.03817576 24.8493042 33.09918213 C25.84037066 35.60645858 26.83665349 38.11164839 27.83291245 40.61686516 C29.02085991 43.60653448 30.20357485 46.59827086 31.38671875 49.58984375 C31.8335199 50.71373505 32.28032104 51.83762634 32.74066162 52.99557495 C33.14818665 54.03070221 33.55571167 55.06582947 33.97558594 56.13232422 C34.33658386 57.04529266 34.69758179 57.95826111 35.06951904 58.89889526 C35.83984375 61.09765625 35.83984375 61.09765625 35.83984375 63.09765625 C30.88984375 63.09765625 25.93984375 63.09765625 20.83984375 63.09765625 C19.18984375 58.80765625 17.53984375 54.51765625 15.83984375 50.09765625 C7.91984375 49.76765625 -0.00015625 49.43765625 -8.16015625 49.09765625 C-9.15015625 52.39765625 -10.14015625 55.69765625 -11.16015625 59.09765625 C-11.82015625 60.41765625 -12.48015625 61.73765625 -13.16015625 63.09765625 C-17.78015625 63.09765625 -22.40015625 63.09765625 -27.16015625 63.09765625 C-26.03513765 56.34754466 -26.03513765 56.34754466 -24.6730957 52.89086914 C-24.22176018 51.73289574 -24.22176018 51.73289574 -23.76130676 50.55152893 C-23.43530991 49.73272751 -23.10931305 48.91392609 -22.7734375 48.0703125 C-22.43394577 47.20433945 -22.09445404 46.33836639 -21.74467468 45.44615173 C-20.6594605 42.68196968 -19.5661565 39.92106934 -18.47265625 37.16015625 C-17.75663557 35.33939943 -17.04113597 33.5184376 -16.32617188 31.69726562 C-14.60254645 27.31160693 -12.86965641 22.92969715 -11.13189697 18.54962158 C-10.19740333 16.19164073 -9.26704342 13.83206532 -8.33740234 11.47216797 C-7.79282532 10.09595658 -7.24807776 8.71981265 -6.703125 7.34375 C-6.23285889 6.15322021 -5.76259277 4.96269043 -5.27807617 3.73608398 C-3.74409522 0.11570134 -3.74409522 0.11570134 0 0 Z M2.83984375 18.09765625 C1.83378782 20.69962827 0.8348185 23.30394987 -0.16015625 25.91015625 C-0.44632813 26.64814453 -0.7325 27.38613281 -1.02734375 28.14648438 C-1.29804687 28.85869141 -1.56875 29.57089844 -1.84765625 30.3046875 C-2.09902344 30.95928955 -2.35039063 31.6138916 -2.609375 32.28833008 C-3.30576531 34.26076768 -3.30576531 34.26076768 -3.16015625 37.09765625 C1.45984375 37.09765625 6.07984375 37.09765625 10.83984375 37.09765625 C9.97817097 32.78929233 8.78407502 28.88329647 7.27734375 24.78515625 C7.04337891 24.13998047 6.80941406 23.49480469 6.56835938 22.83007812 C5.99537368 21.25144406 5.41804911 19.67438599 4.83984375 18.09765625 C4.17984375 18.09765625 3.51984375 18.09765625 2.83984375 18.09765625 Z " fill="#FFFFFF" transform="translate(543.16015625,718.90234375)"/>
<path d="M0 0 C4.62 0 9.24 0 14 0 C14.01981934 1.34223633 14.03963867 2.68447266 14.06005859 4.06738281 C14.13613032 9.04722862 14.22484558 14.02678283 14.31738281 19.00634766 C14.35566602 21.16156253 14.39052004 23.31684116 14.421875 25.47216797 C14.4675395 28.57021876 14.52553212 31.66783091 14.5859375 34.765625 C14.59748871 35.72929993 14.60903992 36.69297485 14.62094116 37.68585205 C14.64081085 38.58648376 14.66068054 39.48711548 14.68115234 40.41503906 C14.69447601 41.20557678 14.70779968 41.9961145 14.7215271 42.81060791 C15.03434563 45.27003003 15.71189674 46.89075653 17 49 C19.95628785 51.00696265 22.4702936 51.29635805 26 51.3125 C26.845625 51.32925781 27.69125 51.34601562 28.5625 51.36328125 C31.51500566 50.92324435 32.85242709 50.04690543 35 48 C35.92923977 45.21228069 36.14867338 43.41765752 36.20532227 40.52856445 C36.22526749 39.62785721 36.24521271 38.72714996 36.26576233 37.79914856 C36.28247482 36.83031235 36.29918732 35.86147614 36.31640625 34.86328125 C36.33718735 33.86870407 36.35796844 32.87412689 36.37937927 31.84941101 C36.44479412 28.67051133 36.5037224 25.49152866 36.5625 22.3125 C36.60569288 20.15819452 36.64930742 18.00389746 36.69335938 15.84960938 C36.80046731 10.56649142 36.90175766 5.28328995 37 0 C41.62 0 46.24 0 51 0 C51.04983765 5.78001685 51.08592481 11.55990564 51.10986328 17.34008789 C51.11985425 19.30202415 51.13345163 21.26394578 51.15087891 23.22583008 C51.39909261 51.9091136 51.39909261 51.9091136 45 59 C36.16133444 65.3869145 24.79581889 65.14982579 14.3515625 63.609375 C8.93183206 61.93846996 4.76666918 57.83045485 2 53 C-0.00525008 46.52633651 -0.27113503 40.22436319 -0.1953125 33.49609375 C-0.1924826 32.5322023 -0.18965271 31.56831085 -0.18673706 30.57521057 C-0.17563848 27.52917494 -0.15055364 24.48344514 -0.125 21.4375 C-0.11495684 19.35872824 -0.10583334 17.27995182 -0.09765625 15.20117188 C-0.07573305 10.13399869 -0.04127556 5.067051 0 0 Z " fill="#FFFFFF" transform="translate(48,719)"/>
<path d="M0 0 C4.95 0 9.9 0 15 0 C15.62829712 1.85516235 15.62829712 1.85516235 16.26928711 3.74780273 C17.81872875 8.32026491 19.37202588 12.89140934 20.92651367 17.4621582 C21.59977396 19.44356926 22.27197698 21.42533988 22.94311523 23.4074707 C23.90593589 26.25045627 24.87250601 29.09214248 25.83984375 31.93359375 C26.14091537 32.82525742 26.441987 33.71692108 26.75218201 34.63560486 C27.032397 35.45638016 27.312612 36.27715546 27.60131836 37.12280273 C27.84780624 37.84894272 28.09429413 38.5750827 28.34825134 39.32322693 C28.87337955 41.00767788 28.87337955 41.00767788 30 42 C30.58285767 40.19813232 30.58285767 40.19813232 31.17749023 38.35986328 C32.61648421 33.91273003 34.05755757 29.46627294 35.49926758 25.02001953 C36.12353555 23.09377189 36.74723576 21.16734016 37.37036133 19.24072266 C38.26495345 16.47510213 39.16157025 13.71014522 40.05859375 10.9453125 C40.3377916 10.0806839 40.61698944 9.2160553 40.90464783 8.32522583 C41.16484207 7.52454681 41.42503632 6.7238678 41.69311523 5.89892578 C41.92183823 5.1927713 42.15056122 4.48661682 42.38621521 3.75906372 C43 2 43 2 44 0 C48.95 0 53.9 0 59 0 C56.78711493 7.63213229 54.25003265 15.09763129 51.55078125 22.5703125 C51.13330124 23.73255341 50.71582123 24.89479431 50.28569031 26.09225464 C48.96374407 29.77072316 47.63818207 33.4478764 46.3125 37.125 C45.41027197 39.63262032 44.50887227 42.14053741 43.60742188 44.6484375 C41.40769513 50.7666171 39.2047267 56.88362048 37 63 C32.05 63 27.1 63 22 63 C17.1345933 50.69751229 12.51052182 38.32220122 8.06323242 25.86254883 C7.04418638 23.01125851 6.01730985 20.1628596 4.99023438 17.31445312 C4.33806961 15.49235639 3.68635893 13.67009705 3.03515625 11.84765625 C2.72900894 11.00090836 2.42286163 10.15416046 2.10743713 9.28175354 C1.8297197 8.499207 1.55200226 7.71666046 1.26586914 6.91040039 C1.02050919 6.22522842 0.77514923 5.54005646 0.52235413 4.8341217 C0 3 0 3 0 0 Z " fill="#FFFFFF" transform="translate(192,719)"/>
<path d="M0 0 C0.66 0 1.32 0 2 0 C3.00990692 2.91333079 4.00615952 5.83115319 5 8.75 C5.28617188 9.575 5.57234375 10.4 5.8671875 11.25 C6.13789062 12.04921875 6.40859375 12.8484375 6.6875 13.671875 C6.93886719 14.4050293 7.19023438 15.13818359 7.44921875 15.89355469 C8 18 8 18 8 22 C15.92 22 23.84 22 32 22 C26.375 27.625 26.375 27.625 23.66796875 29.67578125 C23.09755859 30.11083984 22.52714844 30.54589844 21.93945312 30.99414062 C21.36130859 31.42919922 20.78316406 31.86425781 20.1875 32.3125 C19.59001953 32.76689453 18.99253906 33.22128906 18.37695312 33.68945312 C16.92052412 34.79633917 15.46062183 35.89865264 14 37 C14.28049194 37.98395752 14.28049194 37.98395752 14.56665039 38.98779297 C15.40605417 41.94814101 16.23440107 44.91147078 17.0625 47.875 C17.35705078 48.90753906 17.65160156 49.94007813 17.95507812 51.00390625 C18.22900391 51.99003906 18.50292969 52.97617187 18.78515625 53.9921875 C19.04176025 54.90339355 19.29836426 55.81459961 19.56274414 56.75341797 C20 59 20 59 19 61 C13.39 56.38 7.78 51.76 2 47 C-0.94715526 48.47357763 -2.9170291 49.59285816 -5.3828125 51.6015625 C-6.29740234 52.33632813 -6.29740234 52.33632813 -7.23046875 53.0859375 C-8.50201977 54.11890885 -9.77284414 55.15277527 -11.04296875 56.1875 C-15.79346478 60 -15.79346478 60 -18 60 C-16.38911645 52.21406284 -14.23456312 44.62571782 -12 37 C-14.62304564 35.01823243 -17.24876211 33.04003469 -19.875 31.0625 C-20.62136719 30.49853516 -21.36773438 29.93457031 -22.13671875 29.35351562 C-22.85214844 28.81533203 -23.56757812 28.27714844 -24.3046875 27.72265625 C-24.96452637 27.22515869 -25.62436523 26.72766113 -26.30419922 26.21508789 C-27.99194853 24.93843111 -27.99194853 24.93843111 -30 24 C-30 23.34 -30 22.68 -30 22 C-22.08 22 -14.16 22 -6 22 C-5.67 19.69 -5.34 17.38 -5 15 C-4.42749023 12.82836914 -4.42749023 12.82836914 -3.80859375 11.03515625 C-3.47504883 10.05385742 -3.47504883 10.05385742 -3.13476562 9.05273438 C-2.90466797 8.39595703 -2.67457031 7.73917969 -2.4375 7.0625 C-2.20353516 6.37865234 -1.96957031 5.69480469 -1.72851562 4.99023438 C-1.15788171 3.32491499 -0.57972902 1.66217507 0 0 Z " fill="#EFAF19" transform="translate(668,515)"/>
<path d="M0 0 C0.66 0 1.32 0 2 0 C3.0070436 3.1019264 4.00440805 6.20688098 5 9.3125 C5.28617188 10.19357422 5.57234375 11.07464844 5.8671875 11.98242188 C6.13789062 12.82998047 6.40859375 13.67753906 6.6875 14.55078125 C6.93886719 15.33106689 7.19023438 16.11135254 7.44921875 16.9152832 C8 19 8 19 8 22 C15.92 22 23.84 22 32 22 C26.375 27.625 26.375 27.625 23.66796875 29.67578125 C23.09755859 30.11083984 22.52714844 30.54589844 21.93945312 30.99414062 C21.36130859 31.42919922 20.78316406 31.86425781 20.1875 32.3125 C19.59001953 32.76689453 18.99253906 33.22128906 18.37695312 33.68945312 C16.92052412 34.79633917 15.46062183 35.89865264 14 37 C15.55409724 43.51398207 17.16627231 49.89356975 19.546875 56.16015625 C20 58 20 58 19 61 C13.39 56.38 7.78 51.76 2 47 C-2.59179592 49.29589796 -6.32383016 52.27906805 -10.31054688 55.45507812 C-12.86815674 57.4639966 -14.88828208 58.96276069 -18 60 C-16.38911645 52.21406284 -14.23456312 44.62571782 -12 37 C-14.62304564 35.01823243 -17.24876211 33.04003469 -19.875 31.0625 C-20.62136719 30.49853516 -21.36773438 29.93457031 -22.13671875 29.35351562 C-22.85214844 28.81533203 -23.56757812 28.27714844 -24.3046875 27.72265625 C-24.96452637 27.22515869 -25.62436523 26.72766113 -26.30419922 26.21508789 C-27.99194853 24.93843111 -27.99194853 24.93843111 -30 24 C-30 23.34 -30 22.68 -30 22 C-22.08 22 -14.16 22 -6 22 C-5.67 19.69 -5.34 17.38 -5 15 C-4.42749023 12.82836914 -4.42749023 12.82836914 -3.80859375 11.03515625 C-3.47504883 10.05385742 -3.47504883 10.05385742 -3.13476562 9.05273438 C-2.90466797 8.39595703 -2.67457031 7.73917969 -2.4375 7.0625 C-2.20353516 6.37865234 -1.96957031 5.69480469 -1.72851562 4.99023438 C-1.15788171 3.32491499 -0.57972902 1.66217507 0 0 Z " fill="#EFAF19" transform="translate(579,515)"/>
<path d="M0 0 C4.62 0 9.24 0 14 0 C14 16.83 14 33.66 14 51 C24.23 51 34.46 51 45 51 C45 54.96 45 58.92 45 63 C30.15 63 15.3 63 0 63 C0 42.21 0 21.42 0 0 Z " fill="#FFFFFF" transform="translate(793,719)"/>
<path d="M0 0 C4.62 0 9.24 0 14 0 C14 20.79 14 41.58 14 63 C9.38 63 4.76 63 0 63 C0 42.21 0 21.42 0 0 Z " fill="#FFFFFF" transform="translate(1116,719)"/>
<path d="M0 0 C4.62 0 9.24 0 14 0 C14 20.79 14 41.58 14 63 C9.38 63 4.76 63 0 63 C0 42.21 0 21.42 0 0 Z " fill="#FFFFFF" transform="translate(434,719)"/>
<path d="M0 0 C4.29 0 8.58 0 13 0 C13 20.79 13 41.58 13 63 C8.71 63 4.42 63 0 63 C0 42.21 0 21.42 0 0 Z " fill="#FFFFFF" transform="translate(933,719)"/>
<path d="M0 0 C4.29 0 8.58 0 13 0 C13 20.79 13 41.58 13 63 C8.71 63 4.42 63 0 63 C0 42.21 0 21.42 0 0 Z " fill="#FFFFFF" transform="translate(174,719)"/>
<path d="M0 0 C4.62 0 9.24 0 14 0 C14.11281363 7.11289932 13.71548533 13.97598802 12.90625 21.0390625 C12.79526978 22.04593109 12.68428955 23.05279968 12.56994629 24.09017944 C12.21839019 27.26904356 11.859327 30.44700589 11.5 33.625 C11.25861539 35.79551746 11.01772527 37.96608997 10.77734375 40.13671875 C10.19060768 45.42512872 9.59772534 50.71282143 9 56 C7.68 56 6.36 56 5 56 C4.28113269 49.47200292 3.56988309 42.94320719 2.86376953 36.41381836 C2.62298509 34.19553109 2.38049692 31.97742803 2.13623047 29.75952148 C1.78418406 26.56020996 1.43839499 23.36027253 1.09375 20.16015625 C0.9843811 19.17854019 0.87501221 18.19692413 0.7623291 17.18556213 C0.14839355 11.41873707 -0.10426216 5.79958243 0 0 Z " fill="#F0AF19" transform="translate(638,233)"/>
<path d="M0 0 C4.62 0 9.24 0 14 0 C13.36836984 12.42931998 12.03882981 24.66184857 10.4375 37 C10.20070533 38.85410714 9.96437453 40.70827359 9.72851562 42.5625 C9.15767009 47.04236592 8.58061969 51.52139084 8 56 C7.01 56 6.02 56 5 56 C3.30797651 52.61595301 3.37987651 48.76731579 3.02734375 45.0390625 C2.93997452 44.13811859 2.85260529 43.23717468 2.7625885 42.30892944 C2.57821197 40.39413649 2.39593549 38.47914036 2.21557617 36.56396484 C1.94183483 33.67081445 1.65789867 30.77879356 1.37304688 27.88671875 C0.47281143 18.54598005 -0.24463134 9.39068698 0 0 Z " fill="#F2B018" transform="translate(682,233)"/>
<path d="M0 0 C4.29 0 8.58 0 13 0 C13.10518955 7.41323387 12.77384333 14.56000237 11.90625 21.91796875 C11.79526978 22.90122635 11.68428955 23.88448395 11.56994629 24.89753723 C11.21903233 27.99487709 10.85967389 31.09116646 10.5 34.1875 C10.258552 36.30527448 10.01766158 38.4231126 9.77734375 40.54101562 C9.19133023 45.69476767 8.59774876 50.84759642 8 56 C6.68 56 5.36 56 4 56 C3.41857645 50.75829656 2.84958507 45.51542839 2.29101562 40.27124023 C2.10023752 38.49549937 1.90633783 36.72009048 1.70898438 34.94506836 C0.41081294 23.24496714 -0.27630199 11.77257549 0 0 Z " fill="#F2B018" transform="translate(552,233)"/>
<path d="M0 0 C4.29 0 8.58 0 13 0 C13.21019538 10.87591597 12.54974022 21.39625028 11.34594727 32.20214844 C11.05832518 34.78752668 10.78318537 37.37402214 10.50976562 39.9609375 C10.33143926 41.61466006 10.15242907 43.26830906 9.97265625 44.921875 C9.89032242 45.69053894 9.80798859 46.45920288 9.72315979 47.25115967 C9.37880266 50.31628275 8.97867374 53.06397878 8 56 C7.01 56 6.02 56 5 56 C4.44725747 51.48356729 3.89596805 46.96696029 3.34594727 42.45019531 C3.15915917 40.9179216 2.97199379 39.38569382 2.78442383 37.85351562 C1.23092537 25.16039757 -0.13626151 12.80858221 0 0 Z " fill="#F2B017" transform="translate(595,233)"/>
<path d="M0 0 C3.6631965 4.6265238 6.06555024 9.80168468 8.6875 15.0625 C9.19861328 16.06861328 9.70972656 17.07472656 10.23632812 18.11132812 C10.71908203 19.07619141 11.20183594 20.04105469 11.69921875 21.03515625 C12.14096436 21.9156665 12.58270996 22.79617676 13.0378418 23.70336914 C14 26 14 26 14 29 C4.43 29 -5.14 29 -15 29 C-10.40398191 19.00164485 -5.77824961 9.37159858 0 0 Z " fill="#EDEEF0" transform="translate(561,85)"/>
<path d="M0 0 C0.28617188 0.60070312 0.57234375 1.20140625 0.8671875 1.8203125 C2.03142494 4.19946766 2.03142494 4.19946766 4.125 6.875 C6.18214631 10.30357718 6.37305442 12.0829286 6 16 C6.66 16 7.32 16 8 16 C8.33 15.01 8.66 14.02 9 13 C9.66 13 10.32 13 11 13 C12.34096535 20.1924505 12.34096535 20.1924505 10.8125 23.8125 C7.61953979 27.66607267 6.18882547 28.84903804 1.0625 29.5 C-2.37809053 29.37161976 -3.0207205 28.98412898 -5.9375 26.75 C-7.76034171 24.31954439 -8.67031735 22.96714383 -9 20 C-7.02 20.33 -5.04 20.66 -3 21 C-3.495 20.29875 -3.99 19.5975 -4.5 18.875 C-6.34339514 15.34182599 -6.6703786 13.9477851 -6 10 C-4.20386666 6.52747554 -2.16165916 3.25535576 0 0 Z " fill="#EEAF19" transform="translate(644,199)"/>
<path d="M0 0 C0.66 0 1.32 0 2 0 C2.268125 1.0725 2.53625 2.145 2.8125 3.25 C3.7189407 6.91602575 3.7189407 6.91602575 5.6875 9.0625 C7 11 7 11 6.6875 14.25 C6.460625 15.1575 6.23375 16.065 6 17 C6.99 17 7.98 17 9 17 C9.66 15.68 10.32 14.36 11 13 C12.55985209 14.55985209 12.24452344 16.08906098 12.3125 18.25 C12.28429384 21.7926931 12.0744356 22.88090304 10.125 26 C6.85420098 29.07839908 4.53887808 29.34670186 0.0390625 29.28125 C-3.24184548 28.82871097 -4.83629145 27.42597626 -7 25 C-7.8125 22.25 -7.8125 22.25 -8 20 C-6.02 20.66 -4.04 21.32 -2 22 C-2.495 21.34 -2.99 20.68 -3.5 20 C-5.39263908 16.21472184 -5.81495565 13.10388378 -5 9 C-3.58197537 5.82913937 -1.88771499 2.91247455 0 0 Z " fill="#EEAF19" transform="translate(600,199)"/>
<path d="M0 0 C0.28617188 0.61230469 0.57234375 1.22460938 0.8671875 1.85546875 C1.97097294 4.16518651 1.97097294 4.16518651 4.125 6.3125 C6.50553532 9.72460063 6.31934909 11.92829904 6 16 C8.12364481 16.22609337 8.12364481 16.22609337 9.625 14.5 C10.305625 13.7575 10.305625 13.7575 11 13 C12.57455739 16.14911479 12.34799118 18.52008816 12 22 C10.22719439 24.97672584 8.14391985 27.42804007 5 29 C-2.75862069 29.43103448 -2.75862069 29.43103448 -6 27 C-9 22.71428571 -9 22.71428571 -9 20 C-6.69 20.66 -4.38 21.32 -2 22 C-2.99 20.700625 -2.99 20.700625 -4 19.375 C-6.26892819 15.54618367 -6.83420214 14.33785112 -6 10 C-4.19771343 6.53085879 -2.1616341 3.25531802 0 0 Z " fill="#EEAF19" transform="translate(557,199)"/>
<path d="M0 0 C8.25 0 16.5 0 25 0 C25 4.29 25 8.58 25 13 C16.75 13 8.5 13 0 13 C0 8.71 0 4.42 0 0 Z " fill="#FFFFFF" transform="translate(1023,752)"/>
<path d="M0 0 C1.0161846 1.32103998 2.01133494 2.65824027 3 4 C3.7425 4.969375 4.485 5.93875 5.25 6.9375 C7 10 7 10 6.75 12.875 C6.5025 13.57625 6.255 14.2775 6 15 C6.99 15.33 7.98 15.66 9 16 C9.66 14.68 10.32 13.36 11 12 C12.53214888 15.06429776 12.22938548 17.6165642 12 21 C10.74544028 23.82275936 9.71615278 25.46288541 7.25 27.3125 C3.9260257 28.32815881 1.46313738 28.41796486 -2 28 C-5.17892352 26.21895133 -7.55673822 24.17147756 -8.875 20.6875 C-8.936875 19.8521875 -8.936875 19.8521875 -9 19 C-7.02 19.33 -5.04 19.66 -3 20 C-3.33 19.505 -3.66 19.01 -4 18.5 C-5.68455241 14.28861897 -5.90369377 10.13451651 -4.13671875 5.9609375 C-2.93186065 3.83162465 -1.74163373 1.74163373 0 0 Z " fill="#F1B018" transform="translate(687,200)"/>
<path d="M0 0 C4.95 0 9.9 0 15 0 C13.54949969 1.68662826 12.09643889 3.37113922 10.62890625 5.04296875 C9.00143504 6.91766152 9.00143504 6.91766152 7.83984375 8.80078125 C6.75 10.4375 6.75 10.4375 4 13 C0.51265687 13.51047396 -2.448042 13.28415664 -6 13 C-4.02 8.71 -2.04 4.42 0 0 Z " fill="#FFFFFF" transform="translate(1120,703)"/>
<path d="M0 0 C4.95 0 9.9 0 15 0 C13.55005563 1.68598182 12.09785738 3.37009192 10.6328125 5.04296875 C9.00414443 6.92268356 9.00414443 6.92268356 7.8046875 8.80078125 C6.6875 10.4375 6.6875 10.4375 4 13 C0.93450442 13.49192919 -1.92521922 13.36173892 -5 13 C-4.38621882 8.08975054 -2.27516294 4.33014883 0 0 Z " fill="#FFFFFF" transform="translate(936,703)"/>
</svg>
