<?xml version="1.0" encoding="UTF-8"?>
<!DOCTYPE svg PUBLIC "-//W3C//DTD SVG 1.1//EN" "http://www.w3.org/Graphics/SVG/1.1/DTD/svg11.dtd">
<svg xmlns="http://www.w3.org/2000/svg" version="1.1" width="1182px" height="588px" style="shape-rendering:geometricPrecision; text-rendering:geometricPrecision; image-rendering:optimizeQuality; fill-rule:evenodd; clip-rule:evenodd" xmlns:xlink="http://www.w3.org/1999/xlink">
<g><path style="opacity:0.965" fill="#fefffe" d="M 91.5,68.5 C 118.502,68.3334 145.502,68.5 172.5,69C 182.588,70.8805 190.588,76.0471 196.5,84.5C 202.536,76.2979 210.536,71.1312 220.5,69C 247.5,68.3333 274.5,68.3333 301.5,69C 302.333,69.8333 303.167,70.6667 304,71.5C 304.5,103.165 304.667,134.832 304.5,166.5C 315.172,166.333 325.839,166.5 336.5,167C 338.329,167.273 339.829,168.107 341,169.5C 341.667,240.833 341.667,312.167 341,383.5C 333.285,445.533 300.452,488.033 242.5,511C 173.883,529.241 118.383,510.074 76,453.5C 62.433,432.134 54.433,408.8 52,383.5C 51.3333,312.167 51.3333,240.833 52,169.5C 52.7724,168.151 53.9391,167.318 55.5,167C 66.495,166.5 77.495,166.333 88.5,166.5C 88.3334,134.498 88.5,102.498 89,70.5C 89.9947,69.9341 90.828,69.2674 91.5,68.5 Z M 96.5,77.5 C 121.836,77.3334 147.169,77.5 172.5,78C 181.996,80.1638 188.329,85.8305 191.5,95C 195.152,95.4986 198.818,95.6653 202.5,95.5C 205.159,86.319 211.159,80.4856 220.5,78C 245.498,77.5 270.498,77.3334 295.5,77.5C 295.5,107.167 295.5,136.833 295.5,166.5C 269.498,166.333 243.498,166.5 217.5,167C 208.33,169.249 201.33,174.416 196.5,182.5C 191.445,174.136 184.112,168.969 174.5,167C 148.502,166.5 122.502,166.333 96.5,166.5C 96.5,136.833 96.5,107.167 96.5,77.5 Z M 147.5,105.5 C 148.376,105.369 149.043,105.702 149.5,106.5C 152.307,112.919 155.307,119.252 158.5,125.5C 151.5,126.833 144.5,126.833 137.5,125.5C 141.372,119.09 144.705,112.423 147.5,105.5 Z M 59.5,176.5 C 81.0271,203.688 102.694,230.855 124.5,258C 121.485,259.379 118.319,260.212 115,260.5C 104.223,256.864 93.3898,253.364 82.5,250C 74.7978,249.269 67.1311,249.436 59.5,250.5C 59.5,225.833 59.5,201.167 59.5,176.5 Z M 332.5,176.5 C 333.498,200.994 333.831,225.661 333.5,250.5C 316.174,247.599 299.84,250.432 284.5,259C 280.572,260.325 276.572,260.658 272.5,260C 293.131,232.549 313.131,204.715 332.5,176.5 Z M 206.5,208.5 C 208.331,209.052 209.997,209.052 211.5,208.5C 206.316,203.147 206.483,197.814 212,192.5C 212.973,195.779 214.473,198.779 216.5,201.5C 215.182,205.692 216.182,206.359 219.5,203.5C 220.537,208.673 218.371,212.006 213,213.5C 209.552,213.325 207.385,211.658 206.5,208.5 Z M 244.5,192.5 C 245.712,194.907 247.212,197.24 249,199.5C 248.782,201.587 248.949,203.587 249.5,205.5C 251.134,205.032 252.3,204.032 253,202.5C 254.462,208.574 252.129,212.241 246,213.5C 243.202,212.856 241.035,211.356 239.5,209C 241.313,209.046 242.979,208.88 244.5,208.5C 242.77,206.207 241.437,203.707 240.5,201C 241.716,198.069 243.05,195.236 244.5,192.5 Z M 144.5,193.5 C 145.764,195.27 147.264,196.937 149,198.5C 149.743,200.441 149.576,202.274 148.5,204C 150.651,206.021 152.151,205.521 153,202.5C 154.809,208.523 152.643,212.189 146.5,213.5C 143.526,213.012 141.193,211.512 139.5,209C 141.424,208.821 143.091,208.654 144.5,208.5C 140.6,203.538 140.6,198.538 144.5,193.5 Z M 177.5,193.5 C 179.636,195.812 181.636,198.312 183.5,201C 181.355,202.818 181.355,204.318 183.5,205.5C 185.073,203.164 186.406,203.164 187.5,205.5C 183.952,214.641 178.952,215.641 172.5,208.5C 174.39,208.649 176.39,208.649 178.5,208.5C 173.565,203.82 173.232,198.82 177.5,193.5 Z M 141.5,217.5 C 144.833,217.5 148.167,217.5 151.5,217.5C 150.284,231.613 148.451,245.613 146,259.5C 143.66,245.605 142.16,231.605 141.5,217.5 Z M 174.5,217.5 C 177.833,217.5 181.167,217.5 184.5,217.5C 183.418,231.572 181.751,245.572 179.5,259.5C 177.045,245.619 175.378,231.619 174.5,217.5 Z M 207.5,217.5 C 210.833,217.5 214.167,217.5 217.5,217.5C 216.709,231.617 215.043,245.617 212.5,259.5C 210.307,245.57 208.64,231.57 207.5,217.5 Z M 241.5,217.5 C 244.5,217.5 247.5,217.5 250.5,217.5C 249.999,231.675 248.333,245.675 245.5,259.5C 243.242,245.59 241.909,231.59 241.5,217.5 Z M 65.5,283.5 C 70.5111,283.334 75.5111,283.501 80.5,284C 89.423,288.53 98.7563,291.863 108.5,294C 118.481,295.336 127.981,293.836 137,289.5C 137.667,298.5 137.667,307.5 137,316.5C 128.421,325.185 118.255,328.019 106.5,325C 91.9033,316.566 76.2366,313.733 59.5,316.5C 59.3335,306.828 59.5002,297.161 60,287.5C 61.8121,286.023 63.6455,284.69 65.5,283.5 Z M 145.5,283.5 C 179.167,283.5 212.833,283.5 246.5,283.5C 246.667,309.502 246.5,335.502 246,361.5C 234.301,394.528 211.467,406.694 177.5,398C 159.513,389.994 149.013,376.16 146,356.5C 145.5,332.169 145.333,307.836 145.5,283.5 Z M 312.5,283.5 C 317.179,283.334 321.845,283.501 326.5,284C 328.899,284.731 331.065,285.898 333,287.5C 333.667,297.5 333.667,307.5 333,317.5C 315.692,313.736 299.359,316.402 284,325.5C 272.342,327.947 262.675,324.614 255,315.5C 254.333,306.833 254.333,298.167 255,289.5C 269.379,295.988 283.879,296.155 298.5,290C 303.377,288.058 308.044,285.892 312.5,283.5 Z M 67.5,349.5 C 71.5138,349.334 75.5138,349.501 79.5,350C 87.0151,353.253 94.6818,356.253 102.5,359C 114.997,362.168 126.497,360.001 137,352.5C 138.823,359.449 140.156,366.449 141,373.5C 132.337,387.498 120.171,391.998 104.5,387C 90.7436,379.207 76.0769,376.707 60.5,379.5C 59.5344,370.852 59.3677,362.186 60,353.5C 62.2552,351.501 64.7552,350.168 67.5,349.5 Z M 312.5,349.5 C 316.846,349.334 321.179,349.501 325.5,350C 328.112,350.639 330.446,351.806 332.5,353.5C 333.418,362.153 333.418,370.82 332.5,379.5C 315.867,376.939 300.2,379.772 285.5,388C 273.319,391.247 263.153,388.081 255,378.5C 253.16,376.319 251.993,373.819 251.5,371C 252.921,365.896 254.088,360.729 255,355.5C 269.374,361.961 283.874,362.128 298.5,356C 303.137,353.511 307.804,351.344 312.5,349.5 Z M 67.5,412.5 C 71.1817,412.335 74.8484,412.501 78.5,413C 85.1667,415.667 91.8333,418.333 98.5,421C 113.552,424.447 128.219,423.447 142.5,418C 128.944,435.382 115.61,452.882 102.5,470.5C 85.2178,454.61 73.5511,435.277 67.5,412.5 Z M 250.5,417.5 C 264.426,423.532 278.76,424.699 293.5,421C 300.589,418.526 307.589,415.86 314.5,413C 318.625,412.146 322.625,412.48 326.5,414C 318.841,435.832 307.008,454.999 291,471.5C 277.248,453.649 263.748,435.649 250.5,417.5 Z M 160.5,434.5 C 162.865,439.241 164.865,444.241 166.5,449.5C 172.138,450.33 177.804,450.83 183.5,451C 179.049,453.783 174.883,456.95 171,460.5C 171.594,466.268 172.594,471.935 174,477.5C 169.667,474.167 165.333,470.833 161,467.5C 156.978,471.023 152.811,474.357 148.5,477.5C 148.167,477.167 147.833,476.833 147.5,476.5C 149.742,471.288 151.242,465.954 152,460.5C 147.5,457.333 143,454.167 138.5,451C 144.491,450.501 150.491,450.334 156.5,450.5C 157.63,445.112 158.963,439.778 160.5,434.5 Z M 230.5,434.5 C 232.575,439.545 234.575,444.712 236.5,450C 241.833,450.333 247.167,450.667 252.5,451C 248.167,454.5 243.833,458 239.5,461.5C 241.538,466.985 242.872,472.318 243.5,477.5C 239.189,474.357 235.022,471.023 231,467.5C 226.667,470.833 222.333,474.167 218,477.5C 218.758,472.046 220.258,466.712 222.5,461.5C 217.975,457.808 213.308,454.308 208.5,451C 214.167,450.667 219.833,450.333 225.5,450C 227.264,444.874 228.931,439.707 230.5,434.5 Z"/></g>
<g><path style="opacity:0.886" fill="#fefffe" d="M 146.5,90.5 C 147.822,90.33 148.989,90.6634 150,91.5C 161.317,112.466 171.817,133.799 181.5,155.5C 178.552,155.777 175.719,155.444 173,154.5C 169.628,147.588 166.128,140.755 162.5,134C 152.833,133.333 143.167,133.333 133.5,134C 129.872,140.755 126.372,147.588 123,154.5C 120.281,155.444 117.448,155.777 114.5,155.5C 124.876,133.748 135.542,112.081 146.5,90.5 Z M 147.5,105.5 C 144.705,112.423 141.372,119.09 137.5,125.5C 144.5,126.833 151.5,126.833 158.5,125.5C 155.307,119.252 152.307,112.919 149.5,106.5C 149.043,105.702 148.376,105.369 147.5,105.5 Z"/></g>
<g><path style="opacity:0.878" fill="#fefffe" d="M 240.5,92.5 C 257.081,91.5259 268.581,98.5259 275,113.5C 276.843,128.308 270.676,138.141 256.5,143C 255.62,144.356 255.286,145.856 255.5,147.5C 261.167,147.5 266.833,147.5 272.5,147.5C 272.5,149.833 272.5,152.167 272.5,154.5C 265.5,154.5 258.5,154.5 251.5,154.5C 251.334,148.158 251.5,141.825 252,135.5C 268.67,129.5 271.503,119.667 260.5,106C 249.591,99.738 238.924,100.071 228.5,107C 221.668,113.487 220.835,120.654 226,128.5C 229.328,131.333 232.995,133.666 237,135.5C 237.5,141.825 237.666,148.158 237.5,154.5C 230.833,154.5 224.167,154.5 217.5,154.5C 217.5,152.167 217.5,149.833 217.5,147.5C 223.167,147.5 228.833,147.5 234.5,147.5C 234.5,145.833 234.5,144.167 234.5,142.5C 225.502,141.003 219.335,136.003 216,127.5C 212.801,107.901 220.968,96.2347 240.5,92.5 Z"/></g>
<g><path style="opacity:0.987" fill="#fefffe" d="M 427.5,166.5 C 454.5,166.5 481.5,166.5 508.5,166.5C 506.086,194.095 504.919,221.761 505,249.5C 504.333,296.5 504.333,343.5 505,390.5C 505.526,402.077 508.859,412.743 515,422.5C 530.551,436.04 545.551,435.374 560,420.5C 565.311,411.598 568.311,401.931 569,391.5C 569.974,324.815 569.308,258.148 567,191.5C 566.598,183.432 565.765,175.432 564.5,167.5C 591.492,166.5 618.492,166.167 645.5,166.5C 644.195,177.79 643.362,189.123 643,200.5C 641.983,268.83 641.317,337.163 641,405.5C 634.953,455.546 607.119,484.712 557.5,493C 529.049,497.391 502.049,493.058 476.5,480C 449.488,461.828 434.988,436.328 433,403.5C 432.7,341.162 432.034,278.829 431,216.5C 430.725,199.759 429.558,183.093 427.5,166.5 Z"/></g>
<g><path style="opacity:0.986" fill="#fefffe" d="M 678.5,166.5 C 722.856,166.054 767.189,166.554 811.5,168C 852.204,175.042 874.704,199.209 879,240.5C 879.667,253.167 879.667,265.833 879,278.5C 878.213,291.34 874.213,303.006 867,313.5C 863.618,316.39 860.118,319.056 856.5,321.5C 861.93,324.387 867.264,327.553 872.5,331C 880.987,340.486 885.821,351.652 887,364.5C 888.985,383.836 888.985,403.17 887,422.5C 878.148,466.347 851.314,488.847 806.5,490C 763.835,490.5 721.168,490.667 678.5,490.5C 680.472,472.561 681.638,454.561 682,436.5C 684,364.5 684,292.5 682,220.5C 681.651,202.437 680.485,184.437 678.5,166.5 Z M 756.5,227.5 C 764.507,227.334 772.507,227.5 780.5,228C 791.93,228.78 800.097,234.28 805,244.5C 808.542,258.586 808.208,272.586 804,286.5C 799.556,295.47 792.389,300.636 782.5,302C 773.865,303.081 765.199,303.581 756.5,303.5C 756.5,278.167 756.5,252.833 756.5,227.5 Z M 756.5,353.5 C 768.872,353.185 781.205,353.685 793.5,355C 803.321,356.824 810.154,362.324 814,371.5C 819.275,387.923 818.275,403.923 811,419.5C 806.533,425.151 800.699,428.317 793.5,429C 781.171,429.5 768.838,429.667 756.5,429.5C 756.5,404.167 756.5,378.833 756.5,353.5 Z"/></g>
<g><path style="opacity:0.987" fill="#fefffe" d="M 919.5,166.5 C 963.856,166.054 1008.19,166.554 1052.5,168C 1093.9,176.079 1116.4,201.246 1120,243.5C 1121.04,258.916 1120.37,274.25 1118,289.5C 1115.92,303.353 1109.09,314.019 1097.5,321.5C 1116.83,330.044 1127,345.044 1128,366.5C 1130.52,387.952 1129.85,409.286 1126,430.5C 1114.63,469.504 1088.46,489.337 1047.5,490C 1004.83,490.5 962.168,490.667 919.5,490.5C 921.507,468.551 922.673,446.551 923,424.5C 923.667,360.5 923.667,296.5 923,232.5C 922.673,210.449 921.507,188.449 919.5,166.5 Z M 996.5,227.5 C 1041.02,222.811 1057.19,242.145 1045,285.5C 1041.04,295.12 1033.87,300.62 1023.5,302C 1014.53,303.04 1005.53,303.54 996.5,303.5C 996.5,278.167 996.5,252.833 996.5,227.5 Z M 996.5,353.5 C 1006.51,353.334 1016.51,353.5 1026.5,354C 1040.14,354.054 1049.64,360.22 1055,372.5C 1057.91,384.745 1058.25,397.078 1056,409.5C 1053.27,420.892 1046.11,427.392 1034.5,429C 1021.84,429.5 1009.17,429.667 996.5,429.5C 996.5,404.167 996.5,378.833 996.5,353.5 Z"/></g>
<g><path style="opacity:0.927" fill="#fefffe" d="M 192.5,309.5 C 195.167,309.5 197.833,309.5 200.5,309.5C 200.5,315.167 200.5,320.833 200.5,326.5C 201.978,326.762 203.311,326.429 204.5,325.5C 206.93,320.963 209.597,316.63 212.5,312.5C 214.944,313.448 216.944,314.948 218.5,317C 216.723,321.387 214.557,325.554 212,329.5C 211.316,330.784 211.483,331.951 212.5,333C 217.146,330.838 221.813,328.338 226.5,325.5C 229.793,327.403 230.793,330.069 229.5,333.5C 225.833,335.667 222.167,337.833 218.5,340C 217.62,341.356 217.286,342.856 217.5,344.5C 223.167,344.5 228.833,344.5 234.5,344.5C 234.5,347.167 234.5,349.833 234.5,352.5C 228.833,352.5 223.167,352.5 217.5,352.5C 217.33,353.822 217.663,354.989 218.5,356C 222.589,358.127 226.423,360.627 230,363.5C 230.164,366.522 229.164,369.189 227,371.5C 222.582,368.707 218.082,366.041 213.5,363.5C 212.28,363.887 211.613,364.72 211.5,366C 214.415,370.65 216.582,375.484 218,380.5C 216.144,382.406 213.977,383.24 211.5,383C 208.792,378.416 205.958,373.916 203,369.5C 202.586,369.957 202.086,370.291 201.5,370.5C 200.671,375.802 200.171,381.136 200,386.5C 197.619,387.435 195.119,387.768 192.5,387.5C 192.5,381.833 192.5,376.167 192.5,370.5C 190.856,370.286 189.356,370.62 188,371.5C 185.819,375.874 183.152,379.874 180,383.5C 177.447,382.777 175.28,381.444 173.5,379.5C 176.6,374.633 179.1,369.633 181,364.5C 180.586,364.043 180.086,363.709 179.5,363.5C 175.22,366.224 170.72,368.557 166,370.5C 163.8,369.133 162.3,367.133 161.5,364.5C 165.296,361.764 169.296,359.264 173.5,357C 175.007,356.163 175.507,354.996 175,353.5C 169.593,352.527 164.093,352.193 158.5,352.5C 158.5,349.833 158.5,347.167 158.5,344.5C 164.093,344.807 169.593,344.473 175,343.5C 175.749,342.365 175.583,341.365 174.5,340.5C 169.795,338.153 165.462,335.32 161.5,332C 162.232,329.274 163.732,327.107 166,325.5C 182.914,336.916 185.414,334.083 173.5,317C 175.493,315.001 177.827,313.501 180.5,312.5C 183.2,316.704 185.7,321.037 188,325.5C 189.356,326.38 190.856,326.714 192.5,326.5C 192.5,320.833 192.5,315.167 192.5,309.5 Z"/></g>
</svg>
