<?xml version="1.0" encoding="UTF-8"?>
<!DOCTYPE svg PUBLIC "-//W3C//DTD SVG 1.1//EN" "http://www.w3.org/Graphics/SVG/1.1/DTD/svg11.dtd">
<svg xmlns="http://www.w3.org/2000/svg" version="1.1" width="1240px" height="822px" style="shape-rendering:geometricPrecision; text-rendering:geometricPrecision; image-rendering:optimizeQuality; fill-rule:evenodd; clip-rule:evenodd" xmlns:xlink="http://www.w3.org/1999/xlink">
<g><path style="opacity:0.991" fill="#064897" d="M 480.5,38.5 C 516.835,38.3333 553.168,38.5 589.5,39C 602.359,41.6996 612.359,48.533 619.5,59.5C 624.324,53.8432 629.657,48.6765 635.5,44C 639.531,41.5452 643.864,39.8786 648.5,39C 684.833,38.3333 721.167,38.3333 757.5,39C 758.333,39.8333 759.167,40.6667 760,41.5C 760.5,83.1653 760.667,124.832 760.5,166.5C 774.837,166.333 789.171,166.5 803.5,167C 806.831,167.794 808.664,169.961 809,173.5C 809.667,260.5 809.667,347.5 809,434.5C 805.715,510.615 771.215,567.448 705.5,605C 660.536,627.292 613.869,631.625 565.5,618C 511.028,600.198 471.528,565.364 447,513.5C 436.755,488.851 431.088,463.185 430,436.5C 429.333,348.833 429.333,261.167 430,173.5C 429.937,170.233 431.437,168.066 434.5,167C 449.163,166.5 463.83,166.333 478.5,166.5C 478.333,124.499 478.5,82.4987 479,40.5C 479.717,39.9558 480.217,39.2891 480.5,38.5 Z"/></g>
<g><path style="opacity:1" fill="#eff0f1" d="M 488.5,49.5 C 521.835,49.3333 555.168,49.5 588.5,50C 601.09,52.7558 609.423,60.2558 613.5,72.5C 617.783,73.4922 622.116,73.8256 626.5,73.5C 629.251,61.5757 636.585,53.7424 648.5,50C 682.165,49.5 715.832,49.3333 749.5,49.5C 749.5,88.5 749.5,127.5 749.5,166.5C 715.832,166.333 682.165,166.5 648.5,167C 635.566,169.797 625.899,176.963 619.5,188.5C 612.608,176.452 602.275,169.285 588.5,167C 555.168,166.5 521.835,166.333 488.5,166.5C 488.5,127.5 488.5,88.5 488.5,49.5 Z"/></g>
<g><path style="opacity:1" fill="#0a4a99" d="M 554.5,66.5 C 555.822,66.33 556.989,66.6634 558,67.5C 571.705,95.0777 585.539,122.578 599.5,150C 596.118,150.824 592.784,150.657 589.5,149.5C 585.167,140.833 580.833,132.167 576.5,123.5C 563.179,122.334 549.846,122.167 536.5,123C 531.872,131.755 527.372,140.589 523,149.5C 519.591,150.622 516.091,150.789 512.5,150C 526.639,122.222 540.639,94.389 554.5,66.5 Z"/></g>
<g><path style="opacity:1" fill="#0d4b99" d="M 672.5,70.5 C 689.86,67.4585 704.36,72.4585 716,85.5C 726.928,102.966 724.094,117.799 707.5,130C 704.285,131.774 700.952,133.274 697.5,134.5C 696.526,136.743 696.192,139.076 696.5,141.5C 703.833,141.5 711.167,141.5 718.5,141.5C 718.5,144.167 718.5,146.833 718.5,149.5C 709.833,149.5 701.167,149.5 692.5,149.5C 692.334,141.493 692.5,133.493 693,125.5C 712.551,119.298 717.218,107.298 707,89.5C 696.273,80.5926 684.106,78.0926 670.5,82C 657.306,87.1655 651.806,96.6655 654,110.5C 657.966,118.307 664.132,123.307 672.5,125.5C 672.5,133.5 672.5,141.5 672.5,149.5C 664.167,149.5 655.833,149.5 647.5,149.5C 647.5,146.833 647.5,144.167 647.5,141.5C 654.833,141.5 662.167,141.5 669.5,141.5C 669.5,139.167 669.5,136.833 669.5,134.5C 649.552,128.385 641.386,115.052 645,94.5C 650.655,82.3373 659.821,74.3373 672.5,70.5 Z"/></g>
<g><path style="opacity:1" fill="#edeef0" d="M 570.5,112.5 C 561.014,113.494 551.348,113.827 541.5,113.5C 546.145,103.543 551.312,93.8759 557,84.5C 561.784,93.7332 566.284,103.067 570.5,112.5 Z"/></g>
<g><path style="opacity:1" fill="#789bc4" d="M 570.5,112.5 C 571.043,112.56 571.376,112.893 571.5,113.5C 561.341,114.823 551.341,114.823 541.5,113.5C 551.348,113.827 561.014,113.494 570.5,112.5 Z"/></g>
<g><path style="opacity:1" fill="#efeff1" d="M 440.5,177.5 C 468.922,213.767 497.589,249.934 526.5,286C 519.045,289.208 511.378,289.875 503.5,288C 493.14,282.213 482.14,278.213 470.5,276C 460.589,275.182 450.756,275.349 441,276.5C 440.5,243.502 440.333,210.502 440.5,177.5 Z"/></g>
<g><path style="opacity:1" fill="#eeeff1" d="M 797.5,177.5 C 798.498,210.329 798.832,243.329 798.5,276.5C 784.733,274.747 771.066,275.247 757.5,278C 749.717,281.058 742.05,284.392 734.5,288C 729.558,289.328 724.558,289.661 719.5,289C 719.043,288.586 718.709,288.086 718.5,287.5C 744.883,250.797 771.216,214.13 797.5,177.5 Z"/></g>
<g><path style="opacity:1" fill="#f0af1e" d="M 552.5,198.5 C 553.272,202.025 555.105,205.025 558,207.5C 558.769,210.099 558.602,212.599 557.5,215C 559.903,215.63 561.737,214.797 563,212.5C 565.957,220.906 562.957,225.906 554,227.5C 547.822,227.151 544.656,224.151 544.5,218.5C 546.583,220.249 548.916,221.082 551.5,221C 548.647,218.46 546.98,215.293 546.5,211.5C 547.699,206.771 549.699,202.438 552.5,198.5 Z"/></g>
<g><path style="opacity:1" fill="#efaf1f" d="M 595.5,198.5 C 596.841,202.136 599.008,205.469 602,208.5C 602.687,210.568 602.52,212.568 601.5,214.5C 602,214.833 602.5,215.167 603,215.5C 604.477,214.556 605.477,213.223 606,211.5C 609.62,222.883 605.454,228.05 593.5,227C 589.553,225.411 587.72,222.578 588,218.5C 589.692,220.245 591.525,220.578 593.5,219.5C 591.383,217.264 590.383,214.597 590.5,211.5C 591.342,206.821 593.009,202.488 595.5,198.5 Z"/></g>
<g><path style="opacity:1" fill="#f1b01c" d="M 682.5,199.5 C 684.381,202.906 686.548,206.239 689,209.5C 689.825,211.701 689.325,213.534 687.5,215C 690.476,215.757 692.309,214.591 693,211.5C 696.167,224.333 691.333,229.167 678.5,226C 676.028,224.202 674.361,221.868 673.5,219C 675.594,220.094 677.927,220.428 680.5,220C 676.185,212.683 676.852,205.85 682.5,199.5 Z"/></g>
<g><path style="opacity:1" fill="#eeae1f" d="M 639.5,198.5 C 640.509,202.178 642.343,205.511 645,208.5C 645.758,210.769 645.591,212.936 644.5,215C 647.329,215.689 648.996,214.522 649.5,211.5C 653.293,220.577 650.293,225.91 640.5,227.5C 634.544,227.296 631.378,224.296 631,218.5C 632.913,220.187 635.08,220.687 637.5,220C 635.224,217.615 633.891,214.781 633.5,211.5C 634.699,206.771 636.699,202.438 639.5,198.5 Z"/></g>
<g><path style="opacity:1" fill="#f5b119" d="M 547.5,232.5 C 551.833,232.5 556.167,232.5 560.5,232.5C 558.98,251.178 557.314,269.845 555.5,288.5C 554.167,288.5 552.833,288.5 551.5,288.5C 549.986,269.845 548.653,251.179 547.5,232.5 Z"/></g>
<g><path style="opacity:1" fill="#f4b119" d="M 590.5,232.5 C 594.833,232.5 599.167,232.5 603.5,232.5C 602.675,251.244 601.008,269.911 598.5,288.5C 597.5,288.5 596.5,288.5 595.5,288.5C 593.457,269.866 591.79,251.199 590.5,232.5 Z"/></g>
<g><path style="opacity:1" fill="#f2b01c" d="M 633.5,232.5 C 638.167,232.5 642.833,232.5 647.5,232.5C 645.833,251.166 644.167,269.833 642.5,288.5C 641.167,288.5 639.833,288.5 638.5,288.5C 637.096,269.799 635.43,251.133 633.5,232.5 Z"/></g>
<g><path style="opacity:1" fill="#f5b119" d="M 677.5,232.5 C 681.833,232.5 686.167,232.5 690.5,232.5C 689.275,251.196 687.608,269.863 685.5,288.5C 683.876,288.64 682.71,287.973 682,286.5C 680.169,268.521 678.669,250.521 677.5,232.5 Z"/></g>
<g><path style="opacity:1" fill="#eff0f1" d="M 447.5,318.5 C 454.508,318.334 461.508,318.5 468.5,319C 479.324,324.718 490.658,329.052 502.5,332C 509.167,332.667 515.833,332.667 522.5,332C 529.591,330.469 536.591,328.636 543.5,326.5C 543.667,338.171 543.5,349.838 543,361.5C 532.573,372.754 519.74,377.254 504.5,375C 484.714,363.201 463.381,359.034 440.5,362.5C 440.333,349.496 440.5,336.496 441,323.5C 442.965,321.45 445.132,319.783 447.5,318.5 Z"/></g>
<g><path style="opacity:1" fill="#e11413" d="M 552.5,318.5 C 596.833,318.5 641.167,318.5 685.5,318.5C 685.667,352.502 685.5,386.502 685,420.5C 675.005,453.834 652.672,471.5 618,473.5C 580.896,470.417 559.229,450.417 553,413.5C 552.5,381.835 552.333,350.168 552.5,318.5 Z"/></g>
<g><path style="opacity:1" fill="#eff0f1" d="M 769.5,318.5 C 775.842,318.334 782.175,318.5 788.5,319C 791.713,319.606 794.713,320.773 797.5,322.5C 798.499,336.15 798.833,349.817 798.5,363.5C 781.848,360.105 765.515,361.271 749.5,367C 729.734,379.939 711.567,378.105 695,361.5C 694.333,349.5 694.333,337.5 695,325.5C 710.544,332.97 726.711,334.47 743.5,330C 752.61,326.94 761.276,323.107 769.5,318.5 Z"/></g>
<g><path style="opacity:1" fill="#f9b214" d="M 570.5,407.5 C 570.5,404.833 570.5,402.167 570.5,399.5C 577.687,399.825 584.687,399.491 591.5,398.5C 592.536,396.609 592.536,394.776 591.5,393C 585.833,389.5 580.167,386 574.5,382.5C 575.667,380.167 576.833,377.833 578,375.5C 578.718,374.549 579.551,374.383 580.5,375C 586,378.5 591.5,382 597,385.5C 598.685,383.983 600.185,382.316 601.5,380.5C 597.958,374.582 594.292,368.749 590.5,363C 592.556,360.556 595.056,358.723 598,357.5C 601.752,363.336 605.252,369.336 608.5,375.5C 610.401,376.231 612.401,376.231 614.5,375.5C 614.5,368.167 614.5,360.833 614.5,353.5C 617.5,353.5 620.5,353.5 623.5,353.5C 623.5,360.833 623.5,368.167 623.5,375.5C 625.752,376.333 627.919,376.333 630,375.5C 633.333,369.5 636.667,363.5 640,357.5C 642.25,358.708 644.417,360.041 646.5,361.5C 647.583,362.365 647.749,363.365 647,364.5C 643.4,370.367 640.4,376.367 638,382.5C 639.314,383.313 640.481,384.313 641.5,385.5C 647.418,381.958 653.251,378.292 659,374.5C 662.093,377.146 663.259,380.312 662.5,384C 657.167,387 651.833,390 646.5,393C 645.862,394.707 645.862,396.54 646.5,398.5C 653.833,398.5 661.167,398.5 668.5,398.5C 668.5,401.5 668.5,404.5 668.5,407.5C 661.137,407.169 653.803,407.503 646.5,408.5C 645.319,410.198 645.319,411.865 646.5,413.5C 652.542,416.849 658.209,420.682 663.5,425C 662.623,427.927 661.123,430.427 659,432.5C 653.333,429.167 647.667,425.833 642,422.5C 640.374,423.289 638.874,424.289 637.5,425.5C 640.968,431.603 644.301,437.769 647.5,444C 645.968,446.117 643.968,447.784 641.5,449C 640.551,449.617 639.718,449.451 639,448.5C 635.96,442.918 632.793,437.418 629.5,432C 627.527,431.505 625.527,431.338 623.5,431.5C 623.5,438.833 623.5,446.167 623.5,453.5C 620.5,453.5 617.5,453.5 614.5,453.5C 614.5,446.167 614.5,438.833 614.5,431.5C 612.396,431.201 610.396,431.534 608.5,432.5C 605.198,438.299 601.698,443.966 598,449.5C 594.807,448.507 592.641,446.507 591.5,443.5C 593.811,438.213 596.644,433.213 600,428.5C 600.977,425.741 600.144,423.741 597.5,422.5C 591.5,425.833 585.5,429.167 579.5,432.5C 577.474,430.295 575.808,427.795 574.5,425C 580.034,421.302 585.701,417.802 591.5,414.5C 592.641,412.579 592.808,410.579 592,408.5C 584.921,407.52 577.755,407.187 570.5,407.5 Z"/></g>
<g><path style="opacity:1" fill="#f28213" d="M 591.5,398.5 C 584.687,399.491 577.687,399.825 570.5,399.5C 570.5,402.167 570.5,404.833 570.5,407.5C 569.523,404.713 569.19,401.713 569.5,398.5C 576.833,398.5 584.167,398.5 591.5,398.5 Z"/></g>
<g><path style="opacity:1" fill="#efeff1" d="M 772.5,404.5 C 781.484,403.311 789.818,404.978 797.5,409.5C 798.499,421.482 798.832,433.482 798.5,445.5C 787.546,443.128 776.546,442.962 765.5,445C 754.534,448.211 743.868,452.211 733.5,457C 716.272,460.465 702.772,454.965 693,440.5C 691.596,438.361 690.763,436.028 690.5,433.5C 692.785,426.646 694.452,419.646 695.5,412.5C 714.383,420.311 733.383,420.477 752.5,413C 759.165,409.825 765.832,406.992 772.5,404.5 Z"/></g>
<g><path style="opacity:1" fill="#efeff1" d="M 450.5,404.5 C 458.319,404.032 465.986,404.865 473.5,407C 496.262,421.656 519.262,422.156 542.5,408.5C 544.197,417.608 546.03,426.608 548,435.5C 537.94,454.443 522.44,461.276 501.5,456C 482.825,444.643 462.825,441.143 441.5,445.5C 440.334,433.514 440.167,421.514 441,409.5C 443.907,407.132 447.074,405.465 450.5,404.5 Z"/></g>
<g><path style="opacity:1" fill="#eeeff0" d="M 451.5,486.5 C 455.514,486.334 459.514,486.501 463.5,487C 471.051,489.441 478.384,492.441 485.5,496C 500.54,500.727 515.873,501.727 531.5,499C 538.386,496.818 545.053,494.485 551.5,492C 533.327,516.333 514.994,540.499 496.5,564.5C 474.405,543.506 458.738,518.339 449.5,489C 450.056,487.989 450.722,487.156 451.5,486.5 Z"/></g>
<g><path style="opacity:1" fill="#eeeef0" d="M 774.5,486.5 C 777.85,486.335 781.183,486.502 784.5,487C 786.619,487.098 788.286,487.931 789.5,489.5C 779.898,518.728 764.231,544.061 742.5,565.5C 723.451,540.659 704.951,515.659 687,490.5C 702.179,500.027 718.679,503.194 736.5,500C 749.875,497.155 762.542,492.655 774.5,486.5 Z"/></g>
<g><path style="opacity:1" fill="#f3b11b" d="M 583.5,536.5 C 590.5,537.167 597.5,537.833 604.5,538.5C 598.864,542.992 593.197,547.492 587.5,552C 590.381,559.697 592.548,567.531 594,575.5C 588.062,570.457 581.895,565.79 575.5,561.5C 569.187,565.331 563.187,569.664 557.5,574.5C 558.109,566.805 560.109,559.305 563.5,552C 557.623,547.283 551.623,542.783 545.5,538.5C 552.833,537.833 560.167,537.167 567.5,536.5C 569.939,529.19 572.606,521.857 575.5,514.5C 578.394,521.857 581.061,529.19 583.5,536.5 Z"/></g>
<g><path style="opacity:1" fill="#f3b11b" d="M 672.5,536.5 C 679.5,537.167 686.5,537.833 693.5,538.5C 687.903,542.981 682.236,547.481 676.5,552C 679.381,559.697 681.548,567.531 683,575.5C 676.742,570.62 670.575,565.62 664.5,560.5C 658.5,565.167 652.5,569.833 646.5,574.5C 647.289,566.855 649.289,559.355 652.5,552C 646.623,547.283 640.623,542.783 634.5,538.5C 642.388,538.153 650.054,537.153 657.5,535.5C 659.232,528.304 661.565,521.304 664.5,514.5C 667.394,521.857 670.061,529.19 672.5,536.5 Z"/></g>
<g><path style="opacity:1" fill="#7b7d56" d="M 567.5,536.5 C 560.167,537.167 552.833,537.833 545.5,538.5C 544.957,538.44 544.624,538.107 544.5,537.5C 552.138,536.503 559.804,536.169 567.5,536.5 Z"/></g>
<g><path style="opacity:1" fill="#7d7e55" d="M 583.5,536.5 C 591.174,536.334 598.841,536.5 606.5,537C 605.956,537.717 605.289,538.217 604.5,538.5C 597.5,537.833 590.5,537.167 583.5,536.5 Z"/></g>
<g><path style="opacity:1" fill="#7e7e56" d="M 657.5,535.5 C 650.054,537.153 642.388,538.153 634.5,538.5C 633.957,538.44 633.624,538.107 633.5,537.5C 641.557,536.804 649.557,536.138 657.5,535.5 Z"/></g>
<g><path style="opacity:1" fill="#7d7e55" d="M 672.5,536.5 C 680.174,536.334 687.841,536.5 695.5,537C 694.956,537.717 694.289,538.217 693.5,538.5C 686.5,537.833 679.5,537.167 672.5,536.5 Z"/></g>
<g><path style="opacity:0.886" fill="#014798" d="M 931.5,702.5 C 936.511,702.334 941.511,702.501 946.5,703C 942.465,706.7 938.798,710.7 935.5,715C 932.518,715.498 929.518,715.665 926.5,715.5C 927.883,711.066 929.549,706.733 931.5,702.5 Z"/></g>
<g><path style="opacity:0.894" fill="#014798" d="M 1115.5,702.5 C 1120.51,702.334 1125.51,702.501 1130.5,703C 1126.46,706.7 1122.8,710.7 1119.5,715C 1116.17,715.667 1112.83,715.667 1109.5,715C 1111.91,711.005 1113.91,706.838 1115.5,702.5 Z"/></g>
<g><path style="opacity:0.927" fill="#014798" d="M 385.5,717.5 C 391.509,717.334 397.509,717.501 403.5,718C 413.92,720.342 418.92,726.842 418.5,737.5C 414.116,737.826 409.783,737.492 405.5,736.5C 401.756,728.589 395.756,726.422 387.5,730C 384.05,732.158 383.717,734.658 386.5,737.5C 394.767,740.485 403.101,743.318 411.5,746C 419.625,751.36 422.458,758.86 420,768.5C 415.46,779.195 407.293,783.861 395.5,782.5C 379.701,783.355 371.034,776.022 369.5,760.5C 373.836,759.366 378.169,759.366 382.5,760.5C 383.192,765.357 385.859,768.523 390.5,770C 394.167,770.667 397.833,770.667 401.5,770C 406.89,767.589 408.223,763.923 405.5,759C 396.833,756 388.167,753 379.5,750C 369.272,740.632 368.938,730.965 378.5,721C 380.925,719.787 383.259,718.621 385.5,717.5 Z"/></g>
<g><path style="opacity:0.931" fill="#014798" d="M 971.5,717.5 C 996.47,713.954 1009.8,724.62 1011.5,749.5C 1011.84,770.325 1001.67,781.325 981,782.5C 965.344,782.84 955.344,775.507 951,760.5C 949.864,751.327 950.531,742.327 953,733.5C 956.925,725.471 963.091,720.138 971.5,717.5 Z M 979.5,728.5 C 992.124,729.967 998.124,737.134 997.5,750C 997.709,765.129 990.376,771.795 975.5,770C 967.274,765.719 963.607,758.886 964.5,749.5C 963.799,738.228 968.799,731.228 979.5,728.5 Z"/></g>
<g><path style="opacity:0.931" fill="#014798" d="M 1155.5,717.5 C 1180.74,713.929 1194.07,724.762 1195.5,750C 1195.58,770.586 1185.41,781.419 1165,782.5C 1144.33,781.725 1133.83,770.891 1133.5,750C 1133.33,733.77 1140.67,722.936 1155.5,717.5 Z M 1162.5,728.5 C 1173.17,728.673 1179.34,734.007 1181,744.5C 1183.48,756.035 1179.64,764.535 1169.5,770C 1156.87,771.709 1149.7,766.209 1148,753.5C 1146.23,741.001 1151.07,732.668 1162.5,728.5 Z"/></g>
<g><path style="opacity:0.925" fill="#014798" d="M 43.5,718.5 C 48.1667,718.5 52.8333,718.5 57.5,718.5C 57.3334,733.504 57.5001,748.504 58,763.5C 60.1277,768.486 63.961,770.82 69.5,770.5C 74.9657,771.023 78.4657,768.689 80,763.5C 80.4999,748.504 80.6666,733.504 80.5,718.5C 85.1667,718.5 89.8333,718.5 94.5,718.5C 94.6666,732.504 94.4999,746.504 94,760.5C 93.1662,776.114 84.8329,783.447 69,782.5C 54.3761,783.532 46.0428,776.865 44,762.5C 43.5001,747.837 43.3334,733.17 43.5,718.5 Z"/></g>
<g><path style="opacity:0.92" fill="#014798" d="M 106.5,718.5 C 111.214,718.173 115.88,718.507 120.5,719.5C 128.135,732.299 135.969,744.966 144,757.5C 144.5,744.504 144.667,731.504 144.5,718.5C 148.833,718.5 153.167,718.5 157.5,718.5C 157.5,739.5 157.5,760.5 157.5,781.5C 152.821,781.666 148.155,781.499 143.5,781C 135.667,768.5 127.833,756 120,743.5C 119.5,756.162 119.333,768.829 119.5,781.5C 115.167,781.5 110.833,781.5 106.5,781.5C 106.5,760.5 106.5,739.5 106.5,718.5 Z"/></g>
<g><path style="opacity:0.973" fill="#014798" d="M 169.5,718.5 C 173.833,718.5 178.167,718.5 182.5,718.5C 182.5,739.5 182.5,760.5 182.5,781.5C 178.167,781.5 173.833,781.5 169.5,781.5C 169.5,760.5 169.5,739.5 169.5,718.5 Z"/></g>
<g><path style="opacity:0.933" fill="#014798" d="M 187.5,718.5 C 192.5,718.5 197.5,718.5 202.5,718.5C 207.223,733.168 212.056,747.835 217,762.5C 222.133,748.267 226.967,733.934 231.5,719.5C 236.5,718.167 241.5,718.167 246.5,719.5C 239.055,739.392 231.888,759.392 225,779.5C 222.617,780.766 219.95,781.432 217,781.5C 214.5,781.167 212,780.833 209.5,780.5C 201.564,760.025 194.231,739.359 187.5,718.5 Z"/></g>
<g><path style="opacity:0.926" fill="#014798" d="M 251.5,718.5 C 267.167,718.5 282.833,718.5 298.5,718.5C 298.5,722.167 298.5,725.833 298.5,729.5C 287.5,729.5 276.5,729.5 265.5,729.5C 265.5,733.833 265.5,738.167 265.5,742.5C 275.833,742.5 286.167,742.5 296.5,742.5C 296.5,746.5 296.5,750.5 296.5,754.5C 286.167,754.5 275.833,754.5 265.5,754.5C 265.5,759.5 265.5,764.5 265.5,769.5C 276.833,769.5 288.167,769.5 299.5,769.5C 299.5,773.5 299.5,777.5 299.5,781.5C 283.5,781.5 267.5,781.5 251.5,781.5C 251.5,760.5 251.5,739.5 251.5,718.5 Z"/></g>
<g><path style="opacity:0.929" fill="#014798" d="M 309.5,718.5 C 322.504,718.333 335.504,718.5 348.5,719C 357.307,721.428 361.641,727.262 361.5,736.5C 361.022,746.149 356.022,751.982 346.5,754C 349.295,755.793 351.795,757.96 354,760.5C 358.417,766.998 362.584,773.665 366.5,780.5C 361.198,781.663 355.864,781.829 350.5,781C 345.167,773.333 339.833,765.667 334.5,758C 331.13,755.922 327.463,755.089 323.5,755.5C 323.5,764.167 323.5,772.833 323.5,781.5C 318.833,781.5 314.167,781.5 309.5,781.5C 309.5,760.5 309.5,739.5 309.5,718.5 Z M 323.5,729.5 C 329.509,729.334 335.509,729.501 341.5,730C 347.292,732.09 348.792,735.924 346,741.5C 345.097,742.701 343.931,743.535 342.5,744C 336.175,744.5 329.842,744.666 323.5,744.5C 323.5,739.5 323.5,734.5 323.5,729.5 Z"/></g>
<g><path style="opacity:0.922" fill="#014798" d="M 429.5,718.5 C 434.167,718.5 438.833,718.5 443.5,718.5C 443.5,739.5 443.5,760.5 443.5,781.5C 438.833,781.5 434.167,781.5 429.5,781.5C 429.5,760.5 429.5,739.5 429.5,718.5 Z"/></g>
<g><path style="opacity:0.927" fill="#014798" d="M 454.5,718.5 C 465.838,718.333 477.172,718.5 488.5,719C 496.469,720.966 501.969,725.799 505,733.5C 508.333,744.5 508.333,755.5 505,766.5C 501.58,774.798 495.414,779.631 486.5,781C 475.839,781.5 465.172,781.667 454.5,781.5C 454.5,760.5 454.5,739.5 454.5,718.5 Z M 468.5,729.5 C 485.553,726.071 493.886,732.904 493.5,750C 493.981,767.326 485.648,773.826 468.5,769.5C 468.5,756.167 468.5,742.833 468.5,729.5 Z"/></g>
<g><path style="opacity:0.93" fill="#014798" d="M 535.5,718.5 C 540.43,718.197 545.263,718.531 550,719.5C 558.167,739.833 566.333,760.167 574.5,780.5C 569.544,781.494 564.544,781.827 559.5,781.5C 558.331,776.826 556.664,772.326 554.5,768C 546.479,767.168 538.479,767.335 530.5,768.5C 528.833,772.5 527.167,776.5 525.5,780.5C 520.88,781.493 516.214,781.827 511.5,781.5C 518.713,760.195 526.713,739.195 535.5,718.5 Z M 541.5,736.5 C 545.293,742.169 547.959,748.502 549.5,755.5C 544.833,755.5 540.167,755.5 535.5,755.5C 537.496,749.178 539.496,742.845 541.5,736.5 Z"/></g>
<g><path style="opacity:0.948" fill="#014798" d="M 580.5,718.5 C 591.838,718.333 603.172,718.5 614.5,719C 622.477,720.975 627.977,725.808 631,733.5C 635.641,748.048 633.974,761.714 626,774.5C 622.238,778.13 617.738,780.297 612.5,781C 601.839,781.5 591.172,781.667 580.5,781.5C 580.5,760.5 580.5,739.5 580.5,718.5 Z M 593.5,729.5 C 610.946,725.684 619.613,732.517 619.5,750C 619.72,767.762 611.053,774.262 593.5,769.5C 593.5,756.167 593.5,742.833 593.5,729.5 Z"/></g>
<g><path style="opacity:0.934" fill="#014798" d="M 667.5,718.5 C 678.838,718.333 690.172,718.5 701.5,719C 709.477,720.975 714.977,725.808 718,733.5C 721.58,745.301 721.246,756.967 717,768.5C 713.23,775.476 707.397,779.642 699.5,781C 688.839,781.5 678.172,781.667 667.5,781.5C 667.5,760.5 667.5,739.5 667.5,718.5 Z M 681.5,729.5 C 698.542,726.059 706.876,732.892 706.5,750C 706.96,767.35 698.627,773.85 681.5,769.5C 681.5,756.167 681.5,742.833 681.5,729.5 Z"/></g>
<g><path style="opacity:0.939" fill="#014798" d="M 730.5,718.5 C 746.167,718.5 761.833,718.5 777.5,718.5C 777.5,722.167 777.5,725.833 777.5,729.5C 766.167,729.5 754.833,729.5 743.5,729.5C 743.5,733.833 743.5,738.167 743.5,742.5C 754.167,742.5 764.833,742.5 775.5,742.5C 775.5,746.5 775.5,750.5 775.5,754.5C 764.833,754.5 754.167,754.5 743.5,754.5C 743.5,759.5 743.5,764.5 743.5,769.5C 755.167,769.5 766.833,769.5 778.5,769.5C 778.5,773.5 778.5,777.5 778.5,781.5C 762.5,781.5 746.5,781.5 730.5,781.5C 730.5,760.5 730.5,739.5 730.5,718.5 Z"/></g>
<g><path style="opacity:0.908" fill="#014798" d="M 788.5,718.5 C 793.167,718.5 797.833,718.5 802.5,718.5C 802.5,735.5 802.5,752.5 802.5,769.5C 812.833,769.5 823.167,769.5 833.5,769.5C 833.5,773.5 833.5,777.5 833.5,781.5C 818.5,781.5 803.5,781.5 788.5,781.5C 788.5,760.5 788.5,739.5 788.5,718.5 Z"/></g>
<g><path style="opacity:0.933" fill="#014798" d="M 865.5,718.5 C 878.171,718.333 890.838,718.5 903.5,719C 913.644,722.172 917.477,729.005 915,739.5C 913.752,742.579 911.919,745.246 909.5,747.5C 918.87,754.232 921.036,762.899 916,773.5C 913.075,778.095 908.909,780.595 903.5,781C 890.838,781.5 878.171,781.667 865.5,781.5C 865.5,760.5 865.5,739.5 865.5,718.5 Z M 879.5,729.5 C 885.509,729.334 891.509,729.501 897.5,730C 903.753,733.579 904.086,737.579 898.5,742C 892.175,742.5 885.842,742.666 879.5,742.5C 879.5,738.167 879.5,733.833 879.5,729.5 Z M 879.5,754.5 C 886.175,754.334 892.842,754.5 899.5,755C 904.689,757.913 905.856,762.08 903,767.5C 902.25,768.126 901.416,768.626 900.5,769C 893.508,769.5 886.508,769.666 879.5,769.5C 879.5,764.5 879.5,759.5 879.5,754.5 Z"/></g>
<g><path style="opacity:0.973" fill="#014798" d="M 928.5,718.5 C 932.833,718.5 937.167,718.5 941.5,718.5C 941.5,739.5 941.5,760.5 941.5,781.5C 937.167,781.5 932.833,781.5 928.5,781.5C 928.5,760.5 928.5,739.5 928.5,718.5 Z"/></g>
<g><path style="opacity:0.935" fill="#014798" d="M 1049.5,718.5 C 1062.17,718.333 1074.84,718.5 1087.5,719C 1099.16,723.834 1102.33,732 1097,743.5C 1095.5,745 1094,746.5 1092.5,748C 1101.18,752.19 1104.34,759.024 1102,768.5C 1100.23,773.935 1096.73,777.768 1091.5,780C 1077.56,781.429 1063.56,781.929 1049.5,781.5C 1049.5,760.5 1049.5,739.5 1049.5,718.5 Z M 1063.5,729.5 C 1069.51,729.334 1075.51,729.501 1081.5,730C 1087.66,733.491 1087.99,737.491 1082.5,742C 1076.18,742.5 1069.84,742.666 1063.5,742.5C 1063.5,738.167 1063.5,733.833 1063.5,729.5 Z M 1063.5,754.5 C 1069.84,754.334 1076.18,754.5 1082.5,755C 1087.6,756.695 1089.43,760.195 1088,765.5C 1086.83,766.667 1085.67,767.833 1084.5,769C 1077.51,769.5 1070.51,769.666 1063.5,769.5C 1063.5,764.5 1063.5,759.5 1063.5,754.5 Z"/></g>
<g><path style="opacity:0.922" fill="#014798" d="M 1111.5,718.5 C 1116.17,718.5 1120.83,718.5 1125.5,718.5C 1125.5,739.5 1125.5,760.5 1125.5,781.5C 1120.83,781.5 1116.17,781.5 1111.5,781.5C 1111.5,760.5 1111.5,739.5 1111.5,718.5 Z"/></g>
<g><path style="opacity:0.895" fill="#014798" d="M 1018.5,751.5 C 1026.83,751.5 1035.17,751.5 1043.5,751.5C 1043.5,755.833 1043.5,760.167 1043.5,764.5C 1035.17,764.5 1026.83,764.5 1018.5,764.5C 1018.5,760.167 1018.5,755.833 1018.5,751.5 Z"/></g>
</svg>
