<?xml version="1.0" standalone="no"?>
<!DOCTYPE svg PUBLIC "-//W3C//DTD SVG 20010904//EN" "http://www.w3.org/TR/2001/REC-SVG-20010904/DTD/svg10.dtd">
<svg xmlns="http://www.w3.org/2000/svg" version="1.0" width="1536.000000pt" height="1024.000000pt" viewBox="0 0 1536.000000 1024.000000" preserveAspectRatio="xMidYMid meet">
<metadata>
Created by potrace 1.16, written by Peter Selinger 2001-2019
<meta name="Producer" content="Online-Convert"/></metadata>
<g transform="translate(0.000000,1024.000000) scale(0.100000,-0.100000)" fill="#000000" stroke="none">
<path d="M3185 8941 c5 -9 -53 -31 -81 -31 -6 0 -36 -18 -68 -40 l-57 -40 -22 21 c-65 61 -159 70 -253 23 -33 -15 -63 -27 -69 -25 -5 1 -7 -1 -2 -5 4 -4 0 -15 -8 -25 -13 -13 -23 -15 -53 -8 -88 20 -163 -2 -224 -66 -17 -19 -35 -32 -39 -30 -4 3 -6 -1 -6 -8 1 -6 -7 -39 -17 -72 -10 -33 -20 -65 -22 -72 -3 -14 -98 -35 -102 -23 -2 5 -10 6 -18 3 -13 -5 -13 -7 -2 -14 11 -7 11 -9 0 -9 -27 0 -105 -64 -133 -108 -16 -26 -32 -64 -36 -84 -3 -21 -9 -35 -14 -33 -4 3 -11 0 -15 -6 -5 -8 -3 -9 5 -4 9 5 12 -1 9 -20 -2 -16 -10 -31 -18 -35 -50 -25 -125 -55 -132 -53 -4 2 -7 -1 -5 -6 3 -11 -55 -66 -66 -63 -5 1 -6 -2 -3 -7 7 -11 -14 -62 -23 -57 -3 2 -7 -6 -7 -17 -1 -12 -6 -57 -11 -99 -5 -43 -6 -78 -1 -78 11 0 10 -113 -2 -144 -11 -31 -51 -52 -77 -41 -10 5 -29 10 -43 11 l-25 3 25 -15 25 -15 -27 4 c-15 2 -25 0 -22 -4 3 -5 -1 -9 -8 -9 -8 0 -31 -9 -53 -20 -22 -11 -47 -20 -56 -20 -9 0 -22 -7 -29 -15 -9 -10 -9 -15 -1 -15 6 0 11 5 11 10 0 6 5 10 11 10 6 0 -5 -18 -24 -40 -39 -42 -67 -92 -86 -152 -7 -21 -17 -38 -22 -38 -6 0 -8 -3 -6 -7 9 -15 -13 -54 -24 -47 -7 4 -9 3 -5 -4 9 -15 -35 -54 -56 -48 -10 2 -16 1 -14 -3 6 -8 -135 -76 -149 -72 -5 1 -7 -1 -3 -5 4 -4 -6 -23 -23 -42 -38 -43 -65 -104 -75 -167 -7 -53 -33 -85 -67 -85 -14 0 -18 -3 -10 -8 9 -6 6 -11 -8 -21 -12 -7 -18 -8 -14 -2 3 6 1 11 -5 11 -7 0 -10 -7 -6 -15 6 -18 -58 -107 -70 -97 -4 4 -4 1 0 -6 8 -14 -2 -54 -12 -48 -4 2 -7 -38 -6 -90 1 -52 -2 -97 -7 -100 -5 -3 -7 -10 -4 -15 12 -18 -5 -28 -30 -19 -27 10 -29 7 -15 -25 5 -11 9 -14 9 -7 1 6 6 12 13 12 7 0 -3 -16 -22 -35 -25 -26 -36 -32 -42 -22 -7 9 -8 8 -7 -3 1 -8 -15 -50 -36 -93 -40 -82 -40 -82 -22 -249 1 -9 5 -14 9 -12 13 8 9 -31 -8 -77 -25 -68 -21 -171 9 -258 15 -41 24 -78 21 -83 -4 -5 3 -12 15 -15 19 -5 26 -15 22 -37 -1 -4 1 -17 5 -28 5 -16 8 -17 14 -7 5 7 6 18 2 24 -3 5 10 -2 29 -17 20 -14 59 -34 88 -44 49 -16 51 -17 35 -35 -16 -18 -15 -18 20 -17 20 1 38 -1 41 -4 3 -3 7 -26 8 -51 1 -25 4 -43 6 -41 2 2 13 -15 23 -39 11 -23 28 -51 38 -62 10 -11 19 -24 19 -30 1 -5 7 -10 14 -11 6 0 29 -8 49 -17 21 -9 44 -17 53 -17 8 0 15 -5 15 -11 0 -5 -4 -8 -9 -4 -5 3 -13 0 -17 -6 -4 -7 -3 -9 4 -5 6 3 13 2 17 -4 4 -6 11 -8 16 -4 5 3 7 10 4 15 -4 5 13 9 38 9 30 0 47 -5 51 -15 3 -8 12 -12 21 -9 25 10 17 -4 -24 -42 -55 -49 -101 -124 -131 -213 -20 -59 -31 -76 -48 -81 -13 -3 -22 -7 -20 -10 6 -10 -55 -80 -65 -73 -5 3 -7 1 -4 -4 4 -6 -2 -31 -13 -54 -11 -24 -20 -54 -20 -66 0 -13 -5 -23 -10 -23 -7 0 -7 -6 0 -19 14 -27 13 -44 -2 -35 -10 6 -10 4 0 -7 15 -16 16 -33 0 -23 -6 4 -8 3 -5 -2 6 -11 -24 -108 -36 -111 -4 -2 -11 -3 -17 -3 -5 0 -7 -7 -4 -15 4 -8 10 -12 15 -9 5 3 9 -6 9 -20 0 -16 -6 -26 -14 -26 -18 0 -29 -27 -14 -36 7 -5 8 -2 3 7 -6 11 -5 12 6 1 11 -10 6 -19 -26 -52 -21 -21 -43 -36 -48 -33 -6 3 -7 1 -3 -5 10 -17 -45 -83 -59 -72 -8 7 -12 5 -12 -5 0 -8 4 -12 9 -9 11 7 10 2 -6 -37 -8 -19 -22 -70 -31 -114 -17 -85 -43 -140 -65 -140 -7 0 -14 -7 -15 -16 -4 -21 -46 -70 -55 -64 -4 3 -7 -3 -6 -13 0 -9 -4 -16 -10 -15 -6 1 -11 -3 -11 -10 -1 -22 -49 -97 -58 -90 -4 5 -5 3 -2 -4 4 -6 -6 -52 -23 -101 -16 -50 -30 -100 -30 -112 0 -11 -4 -19 -9 -16 -4 3 -6 -5 -4 -17 2 -12 0 -42 -4 -67 -7 -35 -16 -49 -42 -67 -18 -13 -39 -20 -45 -16 -6 3 -8 3 -4 -2 10 -11 -11 -37 -23 -29 -5 3 -8 2 -7 -3 2 -8 -50 -95 -72 -120 -6 -7 -9 -13 -6 -13 3 0 -1 -17 -8 -37 -7 -21 -19 -69 -26 -108 -14 -80 -47 -148 -68 -140 -7 2 -10 0 -7 -5 4 -6 -7 -18 -24 -28 l-31 -17 0 -667 0 -668 143 0 c171 0 1035 17 1562 29 236 6 381 6 383 0 2 -5 8 -9 13 -9 6 0 7 5 4 10 -5 8 28 11 102 11 211 -1 789 8 863 13 41 3 283 9 538 12 444 7 463 6 484 -12 12 -10 18 -13 14 -7 -5 9 0 13 15 13 13 0 -7 15 -52 37 -142 71 -341 303 -418 487 -76 182 -116 403 -93 513 10 52 9 65 -9 123 -49 150 -34 348 37 489 34 69 119 161 148 161 8 0 35 31 60 69 58 87 206 228 322 308 107 73 272 161 367 197 38 14 101 42 140 63 103 53 248 201 351 358 44 66 100 151 125 190 93 141 220 254 353 314 l65 29 7 79 c7 91 26 163 56 211 27 43 67 44 109 1 21 -21 32 -26 35 -17 30 104 90 188 133 188 52 0 118 -101 130 -198 l6 -52 34 30 c52 46 86 38 128 -34 26 -45 55 -168 55 -236 0 -37 3 -40 63 -74 78 -44 136 -99 182 -170 67 -105 89 -183 130 -464 43 -300 114 -565 207 -777 76 -173 99 -267 82 -332 -10 -38 -22 -26 -29 30 -10 78 -31 148 -90 292 -116 284 -158 441 -210 781 -45 299 -70 375 -156 491 -33 45 -167 153 -189 153 -4 0 -7 -16 -8 -37 -3 -64 -45 -173 -68 -173 -7 0 -27 27 -45 60 -41 77 -122 153 -205 192 -78 37 -206 49 -295 28 -116 -27 -263 -120 -354 -222 -48 -56 -62 -76 -199 -285 -99 -152 -226 -292 -325 -357 -36 -24 -122 -67 -191 -95 -220 -91 -395 -203 -558 -357 -145 -136 -210 -239 -232 -364 -7 -44 -8 -44 -8 20 -1 36 5 82 12 103 8 20 12 37 10 37 -3 0 -19 -16 -37 -36 -81 -91 -125 -207 -134 -354 -7 -125 13 -233 66 -346 23 -48 39 -89 37 -91 -2 -3 -17 12 -33 31 -15 20 -31 36 -35 36 -13 0 -9 -88 7 -186 39 -243 154 -472 320 -640 78 -80 222 -184 254 -184 9 0 24 -7 34 -14 16 -13 15 -14 -12 -18 -17 -2 -28 -1 -25 4 7 10 -15 9 -41 -2 -19 -8 -18 -9 4 -9 21 -1 22 -3 10 -18 -10 -12 -11 -15 -1 -9 7 4 20 2 29 -6 9 -7 14 -8 11 -3 -3 6 1 16 9 24 12 11 14 10 11 -5 -2 -11 4 -20 16 -22 13 -3 16 0 11 9 -5 8 -4 10 4 5 6 -4 9 -16 6 -25 -7 -23 4 -51 19 -51 15 0 62 -61 58 -75 -2 -5 -1 -7 3 -4 3 4 32 -9 63 -27 31 -19 74 -40 94 -46 21 -6 35 -15 31 -21 -4 -6 0 -8 9 -4 18 6 118 -23 118 -35 0 -4 7 -4 17 -1 12 5 14 3 8 -7 -6 -10 -4 -12 7 -7 19 7 88 -13 88 -25 0 -5 4 -7 8 -4 14 9 166 -44 185 -65 21 -22 35 -26 17 -4 -16 19 -20 20 81 -13 63 -21 84 -31 81 -42 -4 -13 -3 -13 10 -2 13 11 22 10 50 -2 18 -8 27 -15 21 -15 -18 -1 -16 -18 2 -18 8 0 15 4 15 9 0 4 5 8 11 8 5 0 7 -5 3 -12 -4 -7 -3 -8 4 -4 18 11 136 -25 120 -36 -9 -7 -5 -8 12 -4 40 8 72 -4 67 -25 -3 -12 0 -16 9 -12 8 3 11 9 9 14 -3 4 16 2 42 -6 26 -9 58 -18 70 -21 12 -3 24 -13 27 -21 4 -11 14 -13 32 -9 14 4 23 3 20 -2 -3 -5 7 -7 22 -5 15 3 23 1 17 -4 -20 -16 -14 -30 13 -29 15 1 30 5 33 9 3 4 68 -10 145 -33 265 -78 357 -86 704 -66 533 31 800 46 1290 71 272 14 569 30 660 35 91 5 208 12 260 15 52 3 133 8 180 10 47 3 213 12 370 20 255 13 382 20 548 29 28 2 52 -1 52 -5 0 -5 12 -9 28 -8 l27 1 -25 8 c-22 7 -20 8 15 9 22 1 112 6 200 11 88 5 230 12 314 15 85 4 157 8 160 10 4 2 71 6 151 10 80 3 161 8 180 10 19 3 111 9 203 15 110 7 178 15 196 25 16 8 31 11 35 8 3 -4 6 -1 6 6 0 7 13 32 29 55 39 56 58 130 40 152 -10 13 -10 17 2 25 10 6 10 9 2 9 -7 0 -13 5 -13 11 0 5 3 8 8 6 4 -3 8 5 8 16 3 39 121 361 127 346 4 -10 6 -10 6 4 1 9 9 17 19 17 14 0 15 -2 2 -10 -8 -5 -11 -13 -6 -17 4 -4 14 1 22 11 9 13 14 15 14 6 0 -11 3 -11 12 -2 16 16 31 15 22 0 -4 -7 2 -5 13 4 15 14 37 18 94 18 51 0 69 -3 59 -10 -10 -6 -11 -10 -2 -10 6 0 12 -5 12 -11 0 -7 -9 -9 -22 -6 -20 6 -20 5 -5 -10 19 -19 30 -13 32 20 1 20 7 22 79 25 86 3 132 23 121 51 -4 9 -15 66 -26 126 -11 61 -21 115 -23 120 -1 6 -13 -10 -26 -35 -38 -74 -153 -181 -241 -224 -78 -37 -159 -49 -159 -23 0 21 153 517 310 1002 21 66 116 365 210 665 94 300 198 626 230 725 32 99 63 199 69 222 15 56 1 89 -46 111 -34 15 -84 17 -463 17 -234 0 -749 -3 -1145 -8 -727 -7 -1315 -12 -2520 -22 -368 -3 -676 -10 -696 -15 -53 -15 -101 -51 -126 -95 -18 -34 -117 -369 -293 -1000 -71 -253 -416 -1468 -531 -1870 -59 -208 -107 -380 -106 -381 7 -7 50 -7 197 -1 91 4 386 16 655 27 270 11 690 29 935 40 245 11 767 33 1160 50 786 33 1268 53 1665 70 143 7 275 16 294 20 35 10 70 -5 54 -21 -19 -19 -633 -50 -2838 -144 -884 -38 -1249 -54 -1470 -65 -843 -43 -815 -42 -909 -20 -93 21 -491 128 -906 241 -609 167 -810 222 -890 240 -108 25 -210 58 -210 69 0 13 53 19 265 30 110 5 333 17 495 25 162 8 565 29 895 46 330 16 603 33 607 37 10 10 271 925 409 1432 243 891 329 1192 361 1256 29 58 89 107 161 131 47 15 142 17 1082 21 566 2 1031 5 1034 7 2 2 -22 57 -54 122 -31 65 -58 128 -60 141 -1 12 -6 26 -10 30 -5 4 -5 -2 -1 -13 5 -16 2 -15 -14 5 -11 14 -18 31 -15 38 3 7 1 11 -3 8 -8 -5 -89 110 -84 119 1 3 -7 14 -18 25 -12 12 -18 25 -15 30 4 6 2 10 -4 10 -30 0 -87 152 -150 407 -23 89 -50 186 -61 215 -11 28 -17 54 -14 57 14 14 204 -39 204 -56 0 -7 7 -13 15 -13 8 0 15 -5 15 -11 0 -5 5 -7 11 -3 8 4 3 12 -12 21 l-24 14 25 -7 c14 -3 45 -15 70 -26 67 -29 82 -31 68 -8 -7 10 -19 21 -28 24 -8 2 -44 17 -80 31 -35 15 -75 28 -87 28 -14 0 -23 6 -24 16 0 10 -2 11 -6 4 -2 -7 -9 -13 -14 -13 -6 0 -7 4 -4 10 4 6 -5 7 -24 4 -16 -3 -37 -1 -48 6 -15 10 -14 10 11 5 25 -5 28 -4 17 8 -8 10 -28 15 -59 14 -43 -2 -48 0 -50 21 -1 13 -6 31 -12 41 -5 10 -6 21 -3 25 3 3 -3 6 -15 6 -12 0 -22 5 -22 11 0 6 7 9 15 6 16 -7 40 23 79 101 17 33 33 52 44 52 15 0 15 -2 2 -10 -9 -6 -10 -10 -3 -10 6 0 15 5 19 11 4 8 36 9 103 4 53 -4 115 -7 139 -6 23 1 76 -6 117 -14 51 -11 81 -13 93 -6 20 11 12 15 -50 26 -28 4 -38 11 -38 24 0 14 -7 18 -30 17 -38 -1 -39 -13 -2 -18 15 -2 -6 -5 -45 -5 -40 -1 -73 3 -73 8 0 5 -10 9 -22 9 -22 1 -23 1 -4 15 11 8 15 15 9 15 -7 0 -15 -5 -18 -10 -4 -6 -11 -8 -16 -4 -5 3 -20 7 -34 10 -19 3 -23 1 -19 -11 5 -11 10 -13 19 -5 9 8 17 7 27 -4 8 -7 23 -15 33 -17 10 -2 -116 -4 -281 -5 -256 0 -319 -3 -439 -22 -174 -27 -355 -71 -460 -111 -95 -37 -120 -40 -48 -6 197 91 483 144 863 160 151 7 191 12 172 24 -8 5 -7 21 3 56 24 77 45 265 45 393 0 136 -19 263 -56 382 -14 47 -26 99 -27 115 0 17 -2 24 -5 17 -2 -8 -17 8 -34 37 -16 29 -26 57 -22 63 5 7 3 8 -6 3 -10 -6 -11 -1 -7 21 4 16 9 43 13 60 4 20 0 42 -10 62 -9 17 -13 39 -10 49 4 13 3 15 -4 5 -7 -11 -11 -8 -15 10 -12 42 -7 95 27 325 51 333 60 436 60 653 0 292 -28 451 -91 517 -30 32 -35 34 -91 31 -33 -2 -58 -6 -56 -9 6 -10 -26 -20 -38 -12 -6 3 -8 1 -5 -4 4 -6 -12 -23 -36 -38 -23 -15 -61 -43 -84 -62 -24 -19 -47 -31 -53 -28 -5 3 -10 -1 -10 -9 0 -20 -78 -82 -99 -78 -12 2 -13 1 -3 -6 17 -12 -11 -37 -30 -26 -7 4 -10 3 -5 -1 10 -11 -274 -295 -287 -288 -6 4 -8 3 -4 -2 11 -11 -12 -36 -25 -28 -6 4 -7 1 -3 -6 10 -15 -23 -53 -38 -44 -6 3 -8 2 -3 -2 9 -11 -43 -66 -55 -59 -5 3 -7 0 -6 -8 2 -7 -3 -12 -10 -10 -8 1 -11 -2 -8 -7 4 -5 -4 -17 -16 -25 -12 -9 -18 -16 -13 -17 6 0 0 -4 -12 -9 -22 -9 -313 9 -313 20 0 3 -55 4 -122 4 -68 -1 -107 1 -88 3 54 8 11 19 -52 14 -49 -4 -51 -5 -18 -11 19 -3 -64 -9 -185 -14 -121 -4 -248 -11 -282 -15 -34 -3 -69 -4 -77 -1 -22 8 -147 171 -139 183 4 6 1 7 -7 2 -10 -6 -12 -4 -7 8 4 12 2 14 -10 10 -13 -5 -15 -2 -10 11 4 9 3 15 -2 12 -4 -3 -32 25 -62 62 -30 37 -102 117 -161 178 -60 61 -105 114 -100 119 4 4 2 5 -5 1 -6 -3 -37 16 -70 45 -32 28 -75 63 -95 76 -21 14 -35 30 -31 36 3 5 1 7 -4 4 -6 -4 -32 3 -58 14 -95 42 -150 11 -202 -111 -15 -36 -34 -71 -43 -78 -10 -9 -11 -11 -1 -6 11 5 12 1 7 -20 -70 -280 -73 -599 -11 -1034 27 -187 26 -212 -17 -296 -13 -26 -19 -52 -16 -80 3 -35 -2 -48 -42 -101 -25 -33 -58 -88 -73 -122 -27 -61 -66 -198 -68 -237 0 -20 -1 -20 -8 -1 -7 17 -8 17 -13 -7 -3 -15 -2 -26 1 -24 3 2 6 -91 7 -207 0 -175 4 -231 22 -321 11 -60 19 -113 16 -117 -2 -4 0 -9 4 -11 5 -1 12 -16 16 -33 4 -20 3 -25 -3 -16 -6 10 -9 3 -8 -22 1 -22 7 -39 15 -42 11 -4 12 -2 4 8 -7 8 -7 18 -2 27 6 8 10 11 10 5 0 -5 4 -27 9 -48 8 -32 7 -36 -5 -26 -11 9 -14 9 -14 -1 0 -6 9 -14 19 -17 22 -6 25 -32 8 -76 -6 -19 -13 -24 -17 -16 -9 14 -40 5 -40 -12 0 -8 4 -8 15 1 13 11 14 10 9 -5 -5 -12 -4 -16 4 -12 6 4 -3 -24 -20 -62 -18 -39 -36 -67 -41 -64 -6 3 -7 1 -3 -6 8 -12 -1 -51 -12 -50 -20 3 -28 -3 -28 -22 0 -19 1 -19 13 -3 18 24 17 19 -12 -61 -59 -162 -105 -363 -126 -557 l-13 -118 -55 -25 c-116 -55 -256 -189 -354 -338 -29 -45 -85 -129 -123 -187 -88 -135 -235 -286 -319 -328 -33 -16 -114 -51 -180 -76 -66 -26 -131 -54 -143 -62 -13 -9 -25 -14 -27 -12 -1 2 -6 28 -11 58 -8 53 -8 73 -2 238 3 81 -6 115 -49 184 -26 42 -29 53 -11 42 7 -4 8 -3 4 5 -4 6 -11 9 -16 6 -5 -3 -17 6 -26 21 -16 23 -16 34 -5 115 14 98 9 153 -20 213 -11 22 -16 43 -12 47 5 3 33 14 63 24 64 21 167 70 193 93 9 8 17 12 17 8 0 -3 15 8 34 25 19 17 56 42 82 55 25 13 52 28 59 34 6 5 15 6 19 2 4 -4 6 -2 4 3 -1 6 15 36 37 67 l40 58 95 2 c52 1 105 2 117 2 12 0 19 5 16 10 -4 5 1 7 10 3 9 -3 16 -3 14 1 -3 9 80 92 93 92 5 0 9 3 7 8 -3 9 -2 10 57 27 26 8 53 12 60 8 6 -3 8 -3 5 0 -3 4 16 29 42 56 52 54 79 121 79 198 0 44 25 83 53 83 22 0 87 61 108 102 43 85 35 186 -27 310 -19 37 -34 79 -34 93 0 35 28 87 42 79 6 -4 8 -3 4 4 -7 12 15 103 24 97 14 -9 -11 131 -30 167 -11 22 -17 44 -14 50 4 7 2 8 -4 4 -7 -4 -12 -3 -12 2 0 5 -27 41 -59 79 -73 87 -93 124 -86 160 5 24 4 25 -5 8 -8 -15 -8 -5 -3 35 9 66 10 200 2 195 -3 -2 -11 13 -19 33 -28 80 -85 142 -175 191 -22 11 -33 21 -25 20 30 -3 40 1 40 16 0 8 -9 15 -20 15 -11 0 -20 -4 -20 -8 0 -4 -9 -8 -20 -8 -26 0 -26 3 10 78 16 34 30 72 30 83 0 17 2 17 10 5 7 -11 9 -7 5 15 -2 17 -6 58 -9 92 -3 34 -15 88 -26 119 -11 31 -17 61 -14 66 3 5 0 7 -7 6 -23 -5 -26 45 -6 92 14 32 19 63 18 112 -3 97 -5 118 -13 118 -8 0 -23 42 -19 55 1 6 -1 7 -4 3 -4 -4 -21 11 -37 33 -30 42 -82 79 -109 79 -16 0 -65 109 -62 138 0 7 -2 11 -5 8 -8 -9 -33 15 -26 25 3 5 2 8 -3 7 -4 -1 -28 7 -53 18 -25 12 -52 24 -62 27 -11 4 -20 26 -28 64 -23 113 -99 188 -210 208 -16 3 -49 19 -74 35 -58 40 -140 56 -200 41 -75 -19 -88 -15 -121 37 -18 27 -50 59 -79 77 -46 28 -56 30 -140 30 -81 -1 -99 -5 -158 -32 -63 -30 -67 -30 -82 -14 -9 10 -13 21 -9 26 5 4 2 5 -5 1 -8 -5 -22 0 -35 12 -36 34 -135 74 -198 79 -32 3 -59 10 -59 14 0 5 -5 9 -11 9 -5 0 -8 -4 -4 -9z m-766 -1804 c-5 -48 -18 -115 -30 -149 l-20 -61 20 -82 c30 -117 28 -198 -10 -306 -36 -103 -34 -119 19 -224 32 -62 36 -80 40 -166 4 -89 2 -102 -34 -207 l-38 -112 24 -71 c44 -136 12 -251 -100 -348 -48 -42 -59 -58 -72 -108 -9 -32 -31 -78 -48 -101 -77 -106 -247 -160 -373 -117 -40 13 -47 13 -97 -6 -113 -43 -242 -35 -354 21 -32 17 -65 30 -71 30 -8 0 -11 8 -8 20 3 11 8 20 10 20 3 0 42 -17 87 -37 76 -35 87 -38 176 -37 81 0 104 4 157 27 59 25 62 26 94 10 50 -25 162 -22 224 6 90 40 164 132 165 204 0 22 16 43 70 94 38 36 78 84 90 107 27 56 26 143 -1 224 l-21 61 42 122 c55 158 54 221 -4 348 -52 114 -55 148 -20 246 38 106 39 209 5 310 l-23 70 26 65 c31 75 51 158 62 250 8 64 8 64 15 25 4 -22 3 -79 -2 -128z m2525 6 c25 -128 11 -199 -59 -303 -34 -52 -45 -77 -50 -125 -14 -127 -34 -186 -87 -263 -62 -92 -120 -208 -164 -328 l-33 -92 25 -33 c40 -54 73 -124 88 -189 10 -41 25 -73 50 -102 54 -63 78 -136 78 -243 1 -102 -15 -168 -68 -281 -19 -40 -34 -82 -34 -92 0 -11 -7 -23 -16 -26 -26 -10 -13 63 29 169 57 143 65 267 25 370 -6 17 -29 51 -50 78 -30 36 -44 66 -58 123 -13 56 -30 93 -66 146 l-49 70 34 97 c43 125 112 271 158 334 57 80 81 143 93 246 10 81 16 100 46 141 64 90 86 152 84 238 -3 90 -3 92 9 92 5 0 12 -12 15 -27z m2801 -1273 c55 -21 13 -80 -109 -153 l-68 -41 -52 28 c-101 56 -143 86 -155 113 -17 37 1 52 80 63 74 10 267 4 304 -10z m-1966 -33 c71 -126 219 -299 350 -410 48 -40 48 -46 -2 -20 -127 65 -321 278 -342 374 -4 17 -16 47 -27 65 -11 19 -16 34 -11 34 4 0 19 -19 32 -43z m-1444 -218 c28 -14 61 -41 73 -60 20 -29 23 -44 20 -99 -7 -126 -91 -230 -232 -289 l-76 -31 -82 53 c-151 99 -192 157 -193 274 0 63 3 75 25 98 58 62 143 85 300 82 99 -3 122 -7 165 -28z m-1909 -286 c14 -16 53 -71 89 -124 84 -124 146 -183 216 -203 29 -9 61 -16 70 -16 11 0 33 -23 54 -55 41 -61 105 -99 185 -111 26 -4 66 -21 95 -40 54 -37 146 -60 195 -49 22 5 46 -2 93 -25 53 -26 77 -31 138 -32 41 -1 90 4 110 12 31 11 43 10 87 -4 64 -22 214 -22 292 -2 30 8 57 12 59 10 12 -11 -23 -22 -126 -39 -117 -18 -175 -16 -239 11 -33 14 -38 14 -56 -3 -17 -15 -38 -18 -127 -18 -92 0 -113 3 -155 24 -37 18 -68 25 -125 26 -78 2 -114 14 -176 59 -16 12 -59 28 -94 35 -105 21 -140 44 -204 135 -10 14 -24 26 -32 26 -8 0 -40 10 -72 21 -65 25 -138 88 -181 157 -46 74 -132 223 -132 228 0 11 15 1 36 -23z m4792 -337 c149 -75 359 -106 491 -71 86 22 89 12 4 -15 -95 -30 -221 -37 -303 -16 -68 18 -187 72 -230 106 -34 26 -19 25 38 -4z m-3138 -53 c0 -9 -19 -34 -42 -56 l-43 -39 55 7 c30 3 77 13 103 22 54 17 70 12 35 -11 -48 -31 -141 -47 -313 -51 l-170 -5 88 20 c111 25 195 62 237 105 34 35 50 37 50 8z m2357 -782 c18 -27 23 -48 23 -103 0 -60 -3 -72 -25 -94 -15 -15 -34 -24 -47 -22 -55 8 -84 113 -54 193 28 73 65 83 103 26z m-773 8 c66 -31 66 -206 -1 -259 -47 -37 -103 -22 -122 31 -22 64 -3 169 39 211 31 31 46 34 84 17z m508 -228 c36 -14 104 -86 128 -139 14 -29 23 -67 24 -101 0 -46 -3 -56 -26 -76 -83 -71 -311 -50 -394 36 -24 25 -29 39 -28 79 1 84 61 149 175 190 61 22 87 24 121 11z m-86 -376 c65 -13 124 -108 124 -202 0 -97 -60 -142 -123 -93 l-26 21 -21 -21 c-14 -14 -33 -20 -65 -20 -40 0 -47 4 -65 33 -47 77 -2 226 84 278 17 10 38 17 46 15 8 -3 29 -7 46 -11z m-1296 -600 c0 -195 -40 -347 -123 -471 -145 -218 -354 -320 -562 -273 l-60 14 115 6 c130 7 190 25 286 88 192 124 306 356 321 649 7 150 23 141 23 -13z m-3925 2 c1 -91 25 -147 96 -222 l52 -55 -11 -51 c-16 -70 -15 -163 3 -205 8 -20 31 -58 51 -86 l37 -49 -14 -62 c-31 -145 -8 -250 67 -316 38 -34 42 -57 18 -122 -25 -72 -22 -116 15 -190 32 -64 33 -69 26 -143 -5 -55 -11 -76 -21 -76 -11 0 -14 17 -14 75 0 65 -4 83 -31 133 -26 48 -30 65 -27 112 3 30 10 76 18 102 l14 46 -37 41 c-68 76 -72 89 -72 258 0 138 -2 154 -21 180 -47 63 -58 96 -58 178 -1 44 3 97 7 117 7 35 5 41 -32 81 -59 64 -91 139 -91 214 0 52 12 113 22 113 2 0 3 -33 3 -73z m8941 -59 c97 -65 96 -232 -1 -346 -49 -56 -143 -102 -210 -102 -184 0 -256 214 -123 365 43 49 110 93 161 106 53 14 135 3 173 -23z m-6726 -272 c-27 -71 -110 -163 -182 -201 -51 -27 -53 -29 -55 -73 -5 -100 -49 -174 -145 -244 -44 -33 -71 -62 -87 -93 -23 -45 -23 -46 -5 -126 15 -70 15 -86 4 -127 -19 -67 -17 -164 4 -260 28 -119 5 -128 -31 -12 -19 59 -22 187 -9 300 7 54 5 74 -12 117 l-19 51 31 63 c26 53 32 77 34 151 4 90 -16 184 -44 213 -11 11 -10 20 6 52 11 21 25 58 32 83 9 34 13 39 16 22 2 -12 -4 -47 -13 -78 -16 -55 -16 -56 11 -122 17 -42 29 -96 33 -145 l6 -77 52 45 c66 58 93 113 93 191 0 69 4 76 50 94 101 39 212 156 237 247 6 24 8 25 11 7 2 -11 -7 -46 -18 -78z m74 -655 c-9 -25 -41 -80 -71 -122 -49 -70 -53 -81 -53 -133 0 -38 -10 -84 -34 -148 -19 -51 -38 -106 -43 -122 -5 -17 -15 -32 -22 -34 -18 -6 -6 62 26 153 14 39 28 107 32 151 7 78 10 84 53 135 62 75 82 106 104 164 15 41 20 46 22 26 2 -13 -4 -44 -14 -70z m2256 -941 c54 -17 55 -18 58 -60 3 -42 3 -43 -25 -37 -15 3 -58 19 -95 36 -63 28 -68 33 -68 61 0 30 1 31 38 24 20 -4 62 -15 92 -24z"/>
<path d="M12090 7625 c-52 -7 -128 -21 -167 -30 -40 -9 -78 -13 -84 -9 -7 4 -9 3 -6 -3 3 -5 -31 -21 -77 -36 -46 -15 -125 -47 -175 -72 -51 -25 -98 -42 -104 -38 -7 3 -9 2 -4 -2 8 -10 -73 -64 -107 -71 -11 -3 -28 -7 -36 -9 -8 -2 -21 -4 -28 -4 -7 -1 -10 -5 -7 -11 3 -5 1 -10 -6 -10 -7 0 -9 -3 -6 -7 4 -3 0 -15 -10 -25 -9 -10 -13 -18 -9 -18 4 0 -60 -66 -142 -147 -81 -82 -179 -188 -217 -238 -37 -49 -76 -97 -86 -106 -19 -18 -119 -187 -119 -204 0 -5 -5 -3 -11 5 -8 12 -9 10 -4 -7 4 -14 2 -23 -5 -23 -6 0 -9 -4 -5 -9 5 -9 -13 -59 -25 -71 -3 -3 -5 -9 -5 -15 0 -5 -6 -41 -13 -80 -28 -156 -28 -168 -10 -255 10 -47 25 -105 33 -129 18 -53 19 -64 2 -34 -11 20 -12 17 -12 -23 0 -49 7 -55 23 -21 6 12 11 17 11 12 1 -6 -19 -41 -44 -79 -24 -37 -47 -76 -50 -87 -4 -11 -9 -17 -13 -15 -4 2 -8 -6 -9 -17 -1 -12 -10 -60 -20 -107 -18 -84 -18 -85 -51 -88 -22 -2 -34 1 -38 12 -5 12 -9 13 -19 3 -22 -21 4 -27 120 -28 61 0 130 -4 155 -9 27 -4 -51 -7 -197 -6 -157 1 -243 -2 -243 -8 0 -6 -5 -5 -12 2 -7 7 -21 12 -32 12 -18 0 -19 -2 -6 -11 16 -11 7 -10 -47 6 -16 4 -23 1 -28 -14 -4 -14 -18 -23 -43 -27 -71 -13 -70 -26 1 -20 67 5 68 5 62 -17 -7 -21 -6 -21 7 -3 8 10 20 16 26 12 7 -4 12 -3 12 3 0 5 -6 12 -12 14 -7 3 -1 6 15 6 15 1 27 -4 27 -10 0 -5 -4 -7 -10 -4 -5 3 -10 1 -10 -5 0 -8 7 -9 18 -5 9 4 27 7 40 6 12 0 22 3 22 8 0 5 -12 8 -26 6 -16 -1 -22 1 -16 7 6 6 30 9 55 7 25 -2 43 -1 40 4 -2 4 30 7 72 7 48 0 74 -4 70 -10 -3 -5 1 -10 9 -10 9 0 17 8 18 18 1 9 4 -12 7 -48 7 -75 -1 -92 -36 -84 -19 5 -25 2 -30 -14 -6 -23 -33 -19 -33 4 0 8 -5 14 -10 14 -7 0 -7 -6 0 -19 13 -25 13 -34 0 -26 -5 3 -10 1 -10 -5 0 -6 -4 -9 -8 -6 -5 3 -31 -6 -58 -19 -28 -13 -53 -20 -59 -15 -11 9 -52 -16 -42 -26 4 -4 15 -1 24 7 17 12 17 12 2 -5 -9 -9 -25 -18 -37 -19 -11 0 -19 -4 -17 -7 2 -4 -13 -17 -34 -31 -32 -20 -36 -27 -27 -41 13 -22 26 -23 26 -3 0 19 77 68 92 59 6 -4 8 -3 5 3 -8 12 136 75 175 77 14 0 24 4 22 8 -4 5 42 20 63 19 11 0 52 -123 45 -139 -4 -11 -1 -14 9 -9 120 50 191 78 195 75 2 -3 -40 -23 -94 -46 -109 -46 -142 -58 -126 -45 6 4 8 17 4 28 -6 16 -8 14 -13 -12 -4 -22 -13 -32 -31 -37 -14 -3 -37 -17 -52 -31 -15 -14 -35 -25 -45 -25 -10 0 -21 -5 -25 -12 -5 -7 -3 -8 7 -3 8 5 -10 -14 -40 -41 -30 -27 -59 -48 -64 -46 -5 1 -6 -2 -3 -7 9 -14 45 -9 51 7 3 7 10 10 16 6 7 -4 9 -3 6 4 -9 13 82 74 96 65 6 -3 7 -1 3 5 -7 11 6 17 27 13 5 -1 6 3 3 8 -6 9 31 27 47 23 4 -1 7 2 7 6 0 5 12 14 26 21 23 10 30 9 50 -10 15 -14 22 -29 19 -40 -3 -10 0 -21 6 -25 9 -5 10 -2 5 12 -7 18 -6 18 11 1 16 -15 16 -19 3 -28 -12 -8 -11 -9 5 -7 12 2 19 -2 17 -10 -1 -8 1 -11 6 -8 5 3 18 -1 28 -9 17 -13 17 -14 1 -9 -13 5 -16 2 -11 -10 4 -10 13 -15 21 -12 8 4 28 -3 44 -15 24 -17 28 -24 18 -35 -7 -8 -10 -17 -7 -19 3 -3 11 1 18 10 10 13 20 9 69 -28 31 -24 68 -51 83 -60 16 -10 27 -22 25 -28 -1 -7 4 -14 12 -17 8 -3 11 0 7 7 -4 6 7 3 23 -7 17 -9 26 -19 20 -20 -5 -2 -16 1 -23 8 -8 6 -17 7 -20 2 -8 -14 4 -22 36 -22 15 0 28 -4 28 -10 0 -5 5 -10 11 -10 5 0 7 6 3 13 -5 8 -2 8 9 -2 9 -7 17 -11 17 -7 0 4 18 -3 40 -14 140 -71 313 -109 504 -111 153 -2 108 -16 -55 -18 -182 -2 -386 42 -434 94 -11 12 -27 27 -36 33 -15 11 -17 9 -16 -16 1 -25 25 -63 34 -54 10 8 33 0 27 -10 -5 -8 -2 -9 9 -5 9 3 16 3 15 -1 -1 -4 4 -31 10 -60 7 -29 12 -69 12 -88 0 -27 5 -37 23 -43 12 -5 209 -10 437 -10 256 -1 418 -5 424 -11 14 -14 39 -13 30 1 -12 20 232 6 254 -15 10 -9 23 -16 29 -16 5 0 21 -10 34 -21 l24 -21 -25 6 c-21 6 -22 5 -7 -4 22 -14 47 -63 47 -93 0 -28 -38 -154 -215 -712 -188 -594 -231 -733 -254 -808 l-21 -69 30 -251 c17 -139 35 -315 41 -392 10 -138 36 -366 42 -372 2 -2 35 13 73 32 62 32 83 37 213 49 123 13 153 19 205 45 203 100 329 373 376 816 6 61 15 162 20 225 7 96 8 77 5 -115 -2 -162 -8 -258 -20 -325 -54 -297 -168 -519 -314 -608 -69 -43 -107 -52 -259 -62 -116 -8 -142 -13 -195 -38 -34 -16 -82 -45 -107 -65 -24 -20 -48 -33 -52 -31 -4 3 -8 -2 -8 -10 0 -9 -4 -16 -10 -16 -5 0 -7 7 -4 15 5 12 -2 15 -32 14 -37 -2 -37 -2 -9 -8 24 -5 30 -11 31 -33 1 -25 -6 -33 -28 -29 -4 0 -5 -6 -1 -15 5 -13 8 -13 15 -2 7 9 8 7 3 -7 -13 -37 -18 -94 -10 -112 5 -10 7 -22 6 -28 -2 -5 1 -7 4 -3 4 4 24 -1 45 -12 21 -11 55 -20 76 -21 22 -1 47 -6 57 -11 29 -15 121 -37 129 -32 5 3 8 -1 8 -8 0 -8 9 -14 19 -15 18 -2 23 18 8 33 -4 4 -7 25 -7 48 0 107 128 235 218 218 30 -6 18 -15 -38 -31 -96 -27 -180 -160 -152 -240 6 -16 8 -31 6 -34 -2 -2 4 -10 13 -18 16 -13 17 -12 4 4 -16 20 2 24 21 4 13 -15 91 -7 129 13 14 8 19 8 15 1 -4 -6 -1 -11 6 -11 9 0 9 -3 -2 -10 -12 -7 -8 -10 15 -10 172 -6 305 1 298 14 -3 5 8 7 25 4 17 -2 29 -1 26 4 -3 4 2 8 10 8 9 0 16 -4 16 -8 0 -13 59 -5 77 10 14 11 16 11 8 -2 -6 -12 -5 -13 5 -3 9 8 19 9 31 3 11 -7 26 -6 41 0 23 10 23 11 1 6 -13 -2 -23 1 -23 6 0 7 -22 9 -62 5 -71 -6 -63 -2 62 38 95 31 244 102 369 177 279 168 515 414 634 658 17 36 57 139 88 230 32 91 58 160 58 155 1 -6 -11 -56 -25 -110 -53 -205 -132 -381 -230 -516 -113 -155 -334 -350 -502 -444 -39 -22 -72 -42 -72 -45 0 -3 37 -6 83 -7 116 -4 295 -28 450 -62 72 -16 150 -32 172 -36 22 -4 35 -10 28 -12 -7 -2 -74 7 -150 21 -154 28 -403 61 -533 71 -82 7 -87 6 -160 -28 -41 -19 -93 -41 -115 -48 -22 -8 -42 -17 -45 -20 -3 -3 -12 -9 -20 -12 -8 -3 43 -6 113 -6 71 -1 126 -5 123 -10 -3 -4 29 -8 72 -8 l77 0 -70 7 c-56 5 -36 7 95 9 91 1 237 6 325 10 88 5 178 5 200 0 23 -4 57 -4 80 1 51 12 57 12 50 0 -4 -6 8 -10 27 -10 63 0 930 -168 923 -179 -1 -3 18 -7 44 -8 26 -1 73 -8 105 -16 l57 -15 -2 81 c-1 45 -6 89 -10 97 -5 8 -19 49 -33 90 -63 195 -87 283 -82 296 3 8 2 13 -3 9 -12 -7 -25 51 -15 66 4 7 3 9 -3 6 -7 -4 -23 41 -43 116 -18 67 -48 176 -65 242 -108 399 -126 469 -121 482 3 8 2 12 -2 9 -4 -2 -25 62 -46 142 -22 81 -63 229 -92 329 -30 100 -52 188 -50 195 1 7 1 9 -2 4 -8 -15 -81 201 -76 226 3 17 2 18 -3 6 -10 -21 -153 297 -153 339 0 21 -3 24 -9 14 -7 -11 -18 4 -45 58 -20 41 -33 78 -29 84 4 6 1 7 -7 2 -10 -6 -12 -3 -8 13 4 12 3 20 -2 17 -11 -7 -33 52 -24 66 4 7 3 10 -4 5 -13 -8 -26 29 -16 45 4 7 3 9 -3 6 -14 -9 -26 38 -18 66 4 15 4 18 -3 9 -13 -18 -46 118 -37 150 4 16 3 19 -3 9 -12 -17 -44 121 -39 164 3 17 2 21 0 10 -3 -12 -19 29 -39 99 -33 115 -100 284 -170 433 -37 77 -42 111 -74 498 -23 278 -70 571 -114 710 -16 50 -20 77 -13 82 5 3 7 1 3 -5 -3 -6 -2 -13 3 -17 6 -3 8 3 6 14 -2 12 14 47 40 85 82 122 112 258 84 381 -7 33 -13 66 -12 73 0 7 -1 11 -4 8 -3 -3 -18 12 -33 33 -32 43 -75 77 -120 92 -16 6 -30 17 -30 25 0 8 -5 14 -11 14 -5 0 -7 -5 -3 -11 4 -8 -11 -10 -50 -7 -31 1 -56 -1 -56 -5 0 -5 -9 -5 -20 -2 -12 4 -20 2 -20 -6 0 -8 -5 -8 -17 2 -14 12 -16 12 -8 0 6 -10 4 -12 -4 -7 -7 5 -10 15 -7 23 3 8 2 12 -3 9 -5 -3 -27 19 -50 49 -23 30 -76 90 -119 133 -42 42 -75 81 -74 85 1 5 -1 6 -6 3 -11 -7 -37 11 -37 25 0 7 -8 13 -18 15 -25 3 -48 24 -40 37 3 6 1 7 -5 3 -16 -9 -134 63 -125 77 3 5 1 7 -5 3 -6 -3 -45 11 -88 33 -42 21 -73 40 -68 43 5 3 3 3 -4 2 -7 -2 -36 6 -65 17 -83 34 -205 67 -307 84 -130 23 -419 28 -540 10z m1740 -924 c-44 -14 -114 -52 -157 -87 -54 -44 -133 -162 -168 -253 -33 -83 -51 -94 -29 -18 26 91 94 218 143 267 58 58 141 100 195 99 35 -1 37 -2 16 -8z m-2828 -542 c47 -25 78 -158 59 -249 -17 -78 -43 -110 -91 -110 -65 0 -110 74 -110 181 0 131 69 217 142 178z m1275 -19 c54 -33 68 -71 68 -190 0 -98 -2 -109 -30 -159 -58 -105 -175 -110 -226 -9 -61 120 -19 295 86 359 38 24 62 24 102 -1z m-866 -458 c69 -30 89 -61 89 -139 0 -97 -38 -151 -135 -194 -70 -31 -222 -38 -294 -14 -100 33 -150 107 -136 202 9 65 76 132 156 156 77 24 256 18 320 -11z"/>
<path d="M11195 7270 c-3 -5 2 -10 11 -10 16 0 16 -1 -1 -20 -10 -11 -24 -20 -32 -20 -8 0 -11 -4 -8 -10 6 -10 0 -12 -40 -14 -13 -1 -19 -7 -19 -18 1 -14 -4 -17 -25 -12 -14 3 -21 2 -16 -3 6 -4 11 -15 10 -23 0 -11 -13 -16 -50 -17 -27 -2 -70 -8 -94 -13 -35 -9 -46 -8 -52 2 -7 10 -9 9 -9 -3 0 -9 -7 -22 -16 -30 -22 -18 -51 -78 -59 -122 -9 -45 3 -167 16 -167 5 0 9 8 9 18 0 41 138 214 239 300 37 31 98 81 134 111 37 30 65 57 62 59 -2 3 -11 -1 -20 -8 -10 -8 -15 -9 -15 -1 0 14 -17 15 -25 1z"/>
<path d="M11975 2558 c-11 -37 -254 -796 -281 -877 -14 -40 -23 -76 -20 -78 10 -10 97 27 154 66 72 49 168 152 206 221 l27 50 -15 158 c-18 173 -56 475 -61 480 -2 2 -6 -7 -10 -20z"/>
<path d="M6150 1394 c-146 -7 -404 -20 -574 -28 -170 -9 -314 -20 -319 -25 -14 -14 4 -20 393 -129 l345 -96 147 1 c81 0 172 4 202 7 l54 7 21 67 c11 37 29 100 40 140 l20 72 -32 -1 c-18 -1 -151 -8 -297 -15z"/>
</g>
</svg>
